<svg width="38" height="41" viewBox="0 0 38 41" fill="none" xmlns="http://www.w3.org/2000/svg">
<path d="M0.631387 10.3981C0.631387 5.16749 4.87161 0.927285 10.1022 0.927285H27.781C33.0116 0.927285 37.2518 5.16751 37.2518 10.3981V30.6025C37.2518 35.8331 33.0116 40.0733 27.781 40.0733H10.1022C4.87162 40.0733 0.631387 35.833 0.631387 30.6025V10.3981Z" fill="#F3F4F6"/>
<path d="M0.631387 10.3981C0.631387 5.16749 4.87161 0.927285 10.1022 0.927285H27.781C33.0116 0.927285 37.2518 5.16751 37.2518 10.3981V30.6025C37.2518 35.8331 33.0116 40.0733 27.781 40.0733H10.1022C4.87162 40.0733 0.631387 35.833 0.631387 30.6025V10.3981Z" stroke="#E3E5E5" stroke-width="1.26277"/>
<path d="M10.1021 7.87207H27.7809V33.1275H10.1021V7.87207Z" stroke="#E3E5E5"/>
<g clip-path="url(#clip0_642_2532)">
<path d="M15.1541 10.3994C15.8526 10.3994 16.4169 10.9637 16.4169 11.6622V12.925H21.468V11.6622C21.468 10.9637 22.0323 10.3994 22.7308 10.3994C23.4292 10.3994 23.9935 10.9637 23.9935 11.6622V12.925H25.8877C26.9334 12.925 27.7819 13.7734 27.7819 14.8191V16.7133H10.103V14.8191C10.103 13.7734 10.9515 12.925 11.9972 12.925H13.8913V11.6622C13.8913 10.9637 14.4557 10.3994 15.1541 10.3994ZM10.103 17.9761H27.7819V28.7096C27.7819 29.7554 26.9334 30.6038 25.8877 30.6038H11.9972C10.9515 30.6038 10.103 29.7554 10.103 28.7096V17.9761ZM12.6286 21.133V22.3958C12.6286 22.743 12.9127 23.0272 13.26 23.0272H14.5227C14.87 23.0272 15.1541 22.743 15.1541 22.3958V21.133C15.1541 20.7857 14.87 20.5016 14.5227 20.5016H13.26C12.9127 20.5016 12.6286 20.7857 12.6286 21.133ZM17.6797 21.133V22.3958C17.6797 22.743 17.9638 23.0272 18.3111 23.0272H19.5738C19.9211 23.0272 20.2052 22.743 20.2052 22.3958V21.133C20.2052 20.7857 19.9211 20.5016 19.5738 20.5016H18.3111C17.9638 20.5016 17.6797 20.7857 17.6797 21.133ZM23.3622 20.5016C23.0149 20.5016 22.7308 20.7857 22.7308 21.133V22.3958C22.7308 22.743 23.0149 23.0272 23.3622 23.0272H24.6249C24.9722 23.0272 25.2563 22.743 25.2563 22.3958V21.133C25.2563 20.7857 24.9722 20.5016 24.6249 20.5016H23.3622ZM12.6286 26.1841V27.4469C12.6286 27.7941 12.9127 28.0782 13.26 28.0782H14.5227C14.87 28.0782 15.1541 27.7941 15.1541 27.4469V26.1841C15.1541 25.8368 14.87 25.5527 14.5227 25.5527H13.26C12.9127 25.5527 12.6286 25.8368 12.6286 26.1841ZM18.3111 25.5527C17.9638 25.5527 17.6797 25.8368 17.6797 26.1841V27.4469C17.6797 27.7941 17.9638 28.0782 18.3111 28.0782H19.5738C19.9211 28.0782 20.2052 27.7941 20.2052 27.4469V26.1841C20.2052 25.8368 19.9211 25.5527 19.5738 25.5527H18.3111ZM22.7308 26.1841V27.4469C22.7308 27.7941 23.0149 28.0782 23.3622 28.0782H24.6249C24.9722 28.0782 25.2563 27.7941 25.2563 27.4469V26.1841C25.2563 25.8368 24.9722 25.5527 24.6249 25.5527H23.3622C23.0149 25.5527 22.7308 25.8368 22.7308 26.1841Z" fill="#4B5563"/>
</g>
<defs>
<clipPath id="clip0_642_2532">
<rect width="17.6788" height="20.2044" fill="white" transform="translate(10.1025 10.3984)"/>
</clipPath>
</defs>
</svg>
