<svg width="169" height="42" viewBox="0 0 169 42" fill="none" xmlns="http://www.w3.org/2000/svg">
<path d="M55.2762 29.9797C53.5725 29.9797 52.055 29.591 50.7237 28.8135C49.3925 28.036 48.3487 26.9822 47.5937 25.651C46.8375 24.3197 46.46 22.8135 46.46 21.131C46.46 19.4485 46.8325 17.8722 47.5775 16.531C48.3225 15.1897 49.345 14.141 50.6437 13.3847C51.9425 12.6285 53.4337 12.251 55.1162 12.251C56.3725 12.251 57.5225 12.491 58.5662 12.9697C59.61 13.4485 60.5462 14.1672 61.3775 15.126C61.675 15.4672 61.7812 15.8185 61.6962 16.1797C61.6112 16.5422 61.3775 16.861 60.9937 17.1385C60.695 17.351 60.365 17.421 60.0037 17.346C59.6412 17.2722 59.3112 17.086 59.0137 16.7872C57.97 15.6797 56.6712 15.126 55.1162 15.126C54.03 15.126 53.0712 15.376 52.2412 15.8772C51.4112 16.3772 50.7612 17.0747 50.2925 17.9697C49.8237 18.8635 49.59 19.9185 49.59 21.1322C49.59 22.2822 49.83 23.3047 50.3087 24.1985C50.7875 25.0922 51.4537 25.801 52.305 26.3222C53.1562 26.8447 54.1462 27.1047 55.2762 27.1047C56.0212 27.1047 56.6762 27.0147 57.2412 26.8335C57.805 26.6535 58.3225 26.371 58.7912 25.9872C59.1312 25.711 59.4825 25.556 59.845 25.5235C60.2062 25.491 60.5262 25.5935 60.8037 25.8272C61.1662 26.126 61.3675 26.461 61.4112 26.8335C61.4537 27.206 61.3262 27.5422 61.0275 27.8397C59.4937 29.2672 57.5775 29.9797 55.2775 29.9797H55.2762Z" fill="#00008D"/>
<path d="M72.5901 29.979C71.0351 29.979 69.6401 29.5903 68.4051 28.8128C67.1701 28.0353 66.1951 26.9815 65.4826 25.6503C64.7688 24.319 64.4126 22.8128 64.4126 21.1303C64.4126 19.4478 64.8013 17.9353 65.5788 16.594C66.3563 15.2528 67.4101 14.1928 68.7413 13.4153C70.0713 12.6378 71.5689 12.249 73.2301 12.249C74.8914 12.249 76.3813 12.6378 77.7026 13.4153C79.0226 14.1928 80.0713 15.2515 80.8488 16.594C81.6263 17.9353 82.0151 19.4478 82.0151 21.1303H80.7689C80.7689 22.8128 80.4126 24.319 79.6989 25.6503C78.9851 26.9815 78.0114 28.0353 76.7764 28.8128C75.5414 29.5903 74.1463 29.979 72.5913 29.979H72.5901ZM73.2289 27.104C74.3151 27.104 75.2839 26.844 76.1364 26.3215C76.9876 25.8003 77.6588 25.0865 78.1488 24.1815C78.6388 23.2765 78.8839 22.2603 78.8839 21.1315C78.8839 20.0028 78.6388 18.954 78.1488 18.049C77.6588 17.144 76.9876 16.4303 76.1364 15.909C75.2839 15.3878 74.3151 15.1265 73.2289 15.1265C72.1426 15.1265 71.2001 15.3878 70.3376 15.909C69.4751 16.4315 68.7939 17.144 68.2926 18.049C67.7926 18.954 67.5426 19.9815 67.5426 21.1315C67.5426 22.2815 67.7926 23.2778 68.2926 24.1815C68.7926 25.0865 69.4751 25.8003 70.3376 26.3215C71.2001 26.844 72.1639 27.104 73.2289 27.104ZM80.3839 29.8828C79.9151 29.8828 79.5263 29.729 79.2176 29.4203C78.9088 29.1115 78.7539 28.7228 78.7539 28.254V23.3665L79.3614 19.9803L82.0126 21.1303V28.254C82.0126 28.7228 81.8576 29.1115 81.5501 29.4203C81.2414 29.729 80.8526 29.8828 80.3839 29.8828Z" fill="#00008D"/>
<path d="M87.2526 29.8845C86.7838 29.8845 86.3951 29.7307 86.0863 29.422C85.7776 29.1132 85.6226 28.7245 85.6226 28.2557V14.0395C85.6226 13.5495 85.7763 13.1557 86.0863 12.8582C86.3951 12.5607 86.7838 12.4107 87.2526 12.4107C87.7213 12.4107 88.1363 12.5607 88.4351 12.8582C88.7326 13.157 88.8826 13.5507 88.8826 14.0395V28.2557C88.8826 28.7245 88.7338 29.1132 88.4351 29.422C88.1363 29.7307 87.7426 29.8845 87.2526 29.8845ZM97.9226 29.8845C97.4538 29.8845 97.0651 29.7307 96.7563 29.422C96.4476 29.1132 96.2938 28.7245 96.2938 28.2557V19.1195C96.2938 17.7782 95.9638 16.7832 95.3038 16.1332C94.6438 15.4832 93.7813 15.1595 92.7163 15.1595C91.6513 15.1595 90.6926 15.5432 89.9688 16.3095C89.2451 17.0757 88.8826 18.0557 88.8826 19.2482H86.8701C86.8701 17.8645 87.1463 16.6445 87.7013 15.5907C88.2551 14.537 89.0213 13.712 90.0013 13.1145C90.9813 12.5182 92.0988 12.2207 93.3551 12.2207C94.6113 12.2207 95.6438 12.487 96.5813 13.0195C97.5176 13.552 98.2476 14.3345 98.7701 15.367C99.2913 16.3995 99.5526 17.6507 99.5526 19.1207V28.257C99.5526 28.7257 99.4038 29.1145 99.1051 29.4232C98.8063 29.732 98.4126 29.8857 97.9226 29.8857V29.8845ZM108.56 29.8845C108.091 29.8845 107.703 29.7307 107.394 29.422C107.085 29.1132 106.93 28.7245 106.93 28.2557V19.1195C106.93 17.7782 106.6 16.7832 105.94 16.1332C105.28 15.4832 104.418 15.1595 103.353 15.1595C102.288 15.1595 101.335 15.5432 100.621 16.3095C99.9076 17.0757 99.5513 18.0557 99.5513 19.2482H96.9001C96.9001 17.8645 97.1976 16.6445 97.7951 15.5907C98.3913 14.537 99.2276 13.712 100.303 13.1145C101.378 12.5182 102.608 12.2207 103.993 12.2207C105.206 12.2207 106.281 12.487 107.219 13.0195C108.156 13.552 108.885 14.3345 109.408 15.367C109.929 16.3995 110.19 17.6507 110.19 19.1207V28.257C110.19 28.7257 110.041 29.1145 109.743 29.4232C109.444 29.732 109.05 29.8857 108.56 29.8857V29.8845Z" fill="#00008D"/>
<path d="M115.971 37.3272C115.503 37.3272 115.114 37.1722 114.805 36.8647C114.496 36.556 114.341 36.1672 114.341 35.6985V21.1322C114.363 19.4497 114.756 17.9372 115.524 16.596C116.29 15.2547 117.334 14.1947 118.654 13.4172C119.974 12.6397 121.465 12.251 123.126 12.251C124.788 12.251 126.31 12.6397 127.63 13.4172C128.95 14.1947 129.999 15.2535 130.776 16.596C131.554 17.9372 131.943 19.4497 131.943 21.1322C131.943 22.8147 131.585 24.321 130.873 25.6522C130.159 26.9835 129.185 28.0372 127.95 28.8147C126.715 29.5922 125.32 29.981 123.765 29.981C122.508 29.981 121.354 29.721 120.299 29.1985C119.245 28.6772 118.345 27.9685 117.6 27.0747V35.6997C117.6 36.1685 117.451 36.5572 117.153 36.866C116.854 37.1747 116.46 37.3285 115.97 37.3285L115.971 37.3272ZM123.128 27.1047C124.214 27.1047 125.183 26.8447 126.035 26.3222C126.886 25.801 127.563 25.0872 128.064 24.1822C128.564 23.2772 128.815 22.261 128.815 21.1322C128.815 20.0035 128.565 18.9547 128.064 18.0497C127.564 17.1447 126.888 16.431 126.035 15.9097C125.184 15.3885 124.214 15.1272 123.128 15.1272C122.041 15.1272 121.099 15.3885 120.236 15.9097C119.374 16.4322 118.698 17.1447 118.208 18.0497C117.718 18.9547 117.473 19.9822 117.473 21.1322C117.473 22.2822 117.718 23.2785 118.208 24.1822C118.698 25.0872 119.374 25.801 120.236 26.3222C121.099 26.8447 122.063 27.1047 123.128 27.1047Z" fill="#00008D"/>
<path d="M142.9 30.0117C141.431 30.0117 140.115 29.6979 138.955 29.0692C137.794 28.4417 136.879 27.5204 136.207 26.3067C135.536 25.0929 135.201 23.6017 135.201 21.8342V13.9754C135.201 13.5079 135.355 13.1179 135.664 12.8092C135.972 12.5004 136.361 12.3467 136.83 12.3467C137.299 12.3467 137.686 12.5017 137.996 12.8092C138.305 13.1179 138.46 13.5067 138.46 13.9754V21.8342C138.46 23.0267 138.684 24.0117 139.131 24.7892C139.579 25.5667 140.185 26.1417 140.952 26.5142C141.719 26.8867 142.581 27.0729 143.54 27.0729C144.499 27.0729 145.27 26.8917 145.984 26.5304C146.697 26.1679 147.266 25.6792 147.692 25.0604C148.117 24.4429 148.331 23.7504 148.331 22.9842H150.344C150.344 24.3054 150.019 25.4979 149.37 26.5629C148.72 27.6279 147.837 28.4692 146.719 29.0867C145.6 29.7042 144.327 30.0129 142.901 30.0129L142.9 30.0117ZM149.96 29.8517C149.491 29.8517 149.102 29.6967 148.794 29.3892C148.485 29.0804 148.331 28.6917 148.331 28.2229V13.9754C148.331 13.4854 148.485 13.0917 148.794 12.7942C149.102 12.4967 149.491 12.3467 149.96 12.3467C150.429 12.3467 150.844 12.4967 151.141 12.7942C151.44 13.0929 151.589 13.4867 151.589 13.9754V28.2229C151.589 28.6917 151.44 29.0804 151.141 29.3892C150.842 29.6979 150.449 29.8517 149.96 29.8517Z" fill="#00008D"/>
<path d="M162.45 29.979C160.959 29.979 159.58 29.7503 158.314 29.2928C157.046 28.8353 156.061 28.2553 155.359 27.5515C155.04 27.2115 154.906 26.8228 154.96 26.3853C155.012 25.949 155.22 25.5928 155.582 25.3153C156.009 24.9753 156.429 24.8315 156.844 24.884C157.259 24.9378 157.615 25.124 157.914 25.4428C158.275 25.8478 158.856 26.2253 159.654 26.5765C160.452 26.9278 161.341 27.104 162.321 27.104C163.556 27.104 164.499 26.9015 165.149 26.4965C165.797 26.0928 166.134 25.5703 166.155 24.9315C166.176 24.2928 165.872 23.739 165.245 23.2703C164.616 22.8028 163.472 22.419 161.811 22.1203C159.66 21.694 158.1 21.0553 157.131 20.204C156.162 19.3528 155.677 18.309 155.677 17.074C155.677 15.9878 155.996 15.0878 156.636 14.374C157.275 13.6603 158.095 13.129 159.096 12.7765C160.097 12.4253 161.14 12.249 162.226 12.249C163.632 12.249 164.877 12.4728 165.964 12.9203C167.05 13.3678 167.912 13.9853 168.551 14.7728C168.849 15.114 168.987 15.4703 168.966 15.8428C168.945 16.2153 168.764 16.529 168.424 16.7853C168.082 17.0203 167.679 17.094 167.21 17.009C166.741 16.924 166.347 16.7328 166.027 16.434C165.495 15.9228 164.92 15.5715 164.302 15.3803C163.685 15.189 162.971 15.0928 162.162 15.0928C161.225 15.0928 160.432 15.2528 159.782 15.5715C159.132 15.8903 158.809 16.3603 158.809 16.9765C158.809 17.3603 158.91 17.7065 159.112 18.0153C159.315 18.324 159.714 18.6015 160.31 18.8453C160.906 19.0903 161.78 19.3303 162.93 19.564C164.527 19.8828 165.789 20.2878 166.716 20.7778C167.642 21.2678 168.307 21.8378 168.712 22.4865C169.116 23.1365 169.32 23.8865 169.32 24.739C169.32 25.719 169.059 26.6028 168.537 27.3903C168.015 28.1778 167.249 28.8065 166.237 29.2753C165.225 29.744 163.964 29.9778 162.451 29.9778L162.45 29.979Z" fill="#00008D"/>
<path d="M30.5937 34.5447C30.1075 38.9734 27.1775 42.4259 24.0225 41.9572C20.9925 41.5059 19.1425 37.6822 19.6575 33.4684V33.4609C19.6937 33.1784 19.7362 32.8959 19.7937 32.6134C20.635 28.3784 23.6037 25.6309 26.43 26.2134C27.625 26.4597 28.6475 27.2759 29.3887 28.4559C29.4025 28.4809 29.4175 28.5022 29.4312 28.5272C30.3825 30.0722 30.8512 32.2259 30.5937 34.5447Z" fill="#EF072F"/>
<path d="M16.9324 31.5257C16.5349 32.0019 16.0274 32.4232 15.4261 32.7819C14.6611 33.2357 13.7299 33.5794 12.6674 33.7732C8.19238 34.5857 3.24113 32.4169 1.86738 28.9969C0.568626 25.7669 3.04738 22.8194 7.20863 22.2319C7.31613 22.2144 7.42363 22.1994 7.53113 22.1894C8.14988 22.1219 8.77238 22.1069 9.39113 22.1469C12.9149 22.3582 16.2561 24.1932 17.4861 26.7444C18.3086 28.4544 18.0474 30.1894 16.9311 31.5269L16.9324 31.5257Z" fill="#F82548"/>
<path d="M11.13 18.4151C10.275 19.5201 8.88999 19.8464 7.35999 19.4664C7.33499 19.4626 7.30624 19.4551 7.28124 19.4489C5.75749 19.0626 4.09374 17.9851 2.66624 16.3039C-0.171265 12.9701 -0.818764 8.74264 1.08499 6.88139C2.89874 5.10639 6.42999 6.11264 9.09124 9.10264C9.78499 9.88264 10.365 10.7339 10.815 11.6064C10.905 11.7851 10.99 11.9639 11.0725 12.1426C12.1487 14.5139 12.2637 16.9501 11.13 18.4139V18.4151Z" fill="#FDEE00"/>
<path d="M20.3913 6.62105C20.3526 6.78605 20.3051 6.9498 20.2488 7.1073C20.0413 7.74355 19.7263 8.32355 19.3326 8.83105C18.1026 10.426 16.1163 11.2785 14.1563 10.7873C13.8588 10.7123 13.5763 10.6123 13.3126 10.4835C12.6726 10.1798 12.1288 9.73605 11.7063 9.1923C10.6513 7.8548 10.3076 5.9223 10.9588 4.0548C11.9201 1.2898 14.7076 -0.247703 17.1901 0.471047C19.6338 1.18355 21.0638 3.8698 20.3913 6.62105Z" fill="#FFF45C"/>
<path d="M30.6585 15.0272C30.5298 15.0347 30.3935 15.0447 30.261 15.0447C30.2323 15.0484 30.2073 15.0484 30.1785 15.0484C27.1348 15.0947 23.671 13.3347 22.3973 11.0022C22.1723 10.5872 22.0285 10.1834 21.9685 9.80344C21.9298 9.55344 21.9223 9.30969 21.951 9.07719C22.1198 7.63969 23.5535 6.62969 25.7648 6.57344C28.756 6.50219 32.1723 8.20844 33.5235 10.4297C34.9085 12.7084 33.6848 14.7834 30.6585 15.0272Z" fill="#00008D"/>
<path d="M38.696 29.4186C37.7835 31.6436 34.7935 31.0998 31.9348 28.2273C31.7698 28.0661 31.6098 27.8986 31.4485 27.7198C31.1198 27.3586 30.8085 26.9823 30.526 26.5961C28.2335 23.5448 27.2773 19.9598 28.3148 18.1748C28.876 17.2086 29.9248 16.9373 31.1773 17.2811C31.8785 17.4711 32.6473 17.8498 33.4273 18.4111C34.0285 18.8398 34.636 19.3773 35.2298 20.0061C38.0235 22.9786 39.6123 27.1748 38.696 29.4186Z" fill="#00008D"/>
<path d="M21.9086 22.7509C19.1936 22.2609 16.1811 19.7997 15.2586 17.3309C14.3611 14.9309 15.8098 13.4884 18.4286 14.0434C20.9936 14.5872 23.8236 16.8697 24.8173 19.2122C25.8373 21.6159 24.5673 23.2334 21.9086 22.7497V22.7509Z" fill="#00008D"/>
<g style="mix-blend-mode:multiply" opacity="0.08">
<path d="M20.2486 7.10727C20.0411 7.74352 19.7261 8.32352 19.3323 8.83102C18.1023 10.426 16.1161 11.2785 14.1561 10.7873C13.8586 10.7123 13.5761 10.6123 13.3123 10.4835C12.6723 10.1798 12.1286 9.73602 11.7061 9.19227C13.6911 7.81477 16.1061 7.00977 18.7036 7.00977C19.2261 7.00977 19.7411 7.04227 20.2486 7.10602V7.10727Z" fill="#EF072F"/>
</g>
<g style="mix-blend-mode:multiply" opacity="0.23">
<path d="M30.2612 15.045C30.2325 15.0487 30.2075 15.0487 30.1787 15.0487C27.135 15.095 23.6712 13.335 22.3975 11.0025C22.1725 10.5875 22.0287 10.1837 21.9688 9.80371C25.41 10.33 28.3825 12.2862 30.2612 15.045Z" fill="#EF072F"/>
</g>
<g style="mix-blend-mode:multiply" opacity="0.23">
<path d="M33.8537 21.6273C33.8537 24.0561 33.1525 26.3211 31.9362 28.2273C31.7712 28.0661 31.6112 27.8986 31.45 27.7198C31.1212 27.3586 30.81 26.9823 30.5275 26.5961C28.235 23.5448 27.2787 19.9598 28.3162 18.1748C28.8775 17.2086 29.9262 16.9373 31.1787 17.2811C31.88 17.4711 32.6487 17.8498 33.4287 18.4111C33.7075 19.4373 33.855 20.5148 33.855 21.6273H33.8537Z" fill="#EF072F"/>
</g>
<g style="mix-blend-mode:multiply" opacity="0.25">
<path d="M29.431 28.5284C27.206 31.5084 23.6572 33.4397 19.6572 33.4684V33.4609C19.6935 33.1784 19.736 32.8959 19.7935 32.6134C20.6347 28.3784 23.6035 25.6309 26.4297 26.2134C27.6247 26.4597 28.6472 27.2759 29.3885 28.4559C29.4022 28.4809 29.4172 28.5022 29.431 28.5272V28.5284Z" fill="#0A55CC"/>
</g>
<g style="mix-blend-mode:multiply" opacity="0.23">
<path d="M11.1299 18.4152C10.2749 19.5202 8.88986 19.8464 7.35986 19.4664C7.53486 16.4152 8.81986 13.6639 10.8161 11.6064C10.9061 11.7852 10.9911 11.9639 11.0736 12.1427C12.1499 14.5139 12.2649 16.9502 11.1311 18.4139L11.1299 18.4152Z" fill="#EF072F"/>
</g>
<g style="mix-blend-mode:multiply" opacity="0.17">
<path d="M16.9324 31.5265C13.0186 29.949 10.1036 26.4215 9.39111 22.1465C12.9149 22.3577 16.2561 24.1927 17.4861 26.744C18.3086 28.454 18.0474 30.189 16.9311 31.5265H16.9324Z" fill="#0A55CC"/>
</g>
</svg>
