<svg width="45" height="45" viewBox="0 0 45 45" fill="none" xmlns="http://www.w3.org/2000/svg">
<rect width="45" height="45" rx="22.5" fill="white"/>
<path d="M15.5336 15.7186C15.0823 16.4419 14.3266 16.9175 13.4825 17.0374C13.0082 17.1048 12.5357 17.1778 12.065 17.2562C10.7489 17.4755 9.8125 18.6333 9.8125 19.9675V30.5C9.8125 32.0533 11.0717 33.3125 12.625 33.3125H31.375C32.9283 33.3125 34.1875 32.0533 34.1875 30.5V19.9675C34.1875 18.6333 33.2511 17.4755 31.935 17.2562C31.4643 17.1778 30.9918 17.1048 30.5175 17.0374C29.6734 16.9175 28.9177 16.4419 28.4664 15.7186L27.4399 14.0736C26.9668 13.3155 26.1617 12.823 25.2694 12.7751C24.187 12.7169 23.0969 12.6875 22 12.6875C20.9031 12.6875 19.813 12.7169 18.7306 12.7751C17.8383 12.823 17.0332 13.3155 16.5601 14.0736L15.5336 15.7186Z" stroke="black" stroke-width="1.5" stroke-linecap="round" stroke-linejoin="round"/>
<path d="M27.625 23.9375C27.625 27.0441 25.1066 29.5625 22 29.5625C18.8934 29.5625 16.375 27.0441 16.375 23.9375C16.375 20.8309 18.8934 18.3125 22 18.3125C25.1066 18.3125 27.625 20.8309 27.625 23.9375Z" stroke="black" stroke-width="1.5" stroke-linecap="round" stroke-linejoin="round"/>
<path d="M30.4375 21.125H30.4469V21.1344H30.4375V21.125Z" stroke="black" stroke-width="1.5" stroke-linecap="round" stroke-linejoin="round"/>
</svg>
