<svg width="25" height="25" viewBox="0 0 25 25" fill="none" xmlns="http://www.w3.org/2000/svg">
<path d="M12.5 22.5L10.5 16.5H2.5L4.5 22.5H12.5ZM12.5 22.5H16.5M12.5 13.5V13C12.5 11.114 12.5 10.172 11.914 9.586C11.328 9 10.386 9 8.5 9C6.614 9 5.672 9 5.086 9.586C4.5 10.172 4.5 11.114 4.5 13V13.5M14.5 18H20.5C21.0304 18 21.5391 18.2107 21.9142 18.5858C22.2893 18.9609 22.5 19.4696 22.5 20V20.5C22.5 21.0304 22.2893 21.5391 21.9142 21.9142C21.5391 22.2893 21.0304 22.5 20.5 22.5H19.5M19.5 13.5C19.5 14.0304 19.2893 14.5391 18.9142 14.9142C18.5391 15.2893 18.0304 15.5 17.5 15.5C16.9696 15.5 16.4609 15.2893 16.0858 14.9142C15.7107 14.5391 15.5 14.0304 15.5 13.5C15.5 12.9696 15.7107 12.4609 16.0858 12.0858C16.4609 11.7107 16.9696 11.5 17.5 11.5C18.0304 11.5 18.5391 11.7107 18.9142 12.0858C19.2893 12.4609 19.5 12.9696 19.5 13.5ZM10.5 4.5C10.5 5.03043 10.2893 5.53914 9.91421 5.91421C9.53914 6.28929 9.03043 6.5 8.5 6.5C7.96957 6.5 7.46086 6.28929 7.08579 5.91421C6.71071 5.53914 6.5 5.03043 6.5 4.5C6.5 3.96957 6.71071 3.46086 7.08579 3.08579C7.46086 2.71071 7.96957 2.5 8.5 2.5C9.03043 2.5 9.53914 2.71071 9.91421 3.08579C10.2893 3.46086 10.5 3.96957 10.5 4.5Z" stroke="#EF072F" stroke-width="2" stroke-linecap="round" stroke-linejoin="round"/>
</svg>
