<svg width="21" height="20" viewBox="0 0 21 20" fill="none" xmlns="http://www.w3.org/2000/svg">
<path d="M12.7239 15.3175L12.7691 14.9865L12.4805 14.8181L6.62638 11.4015L6.30437 11.2135L6.03238 11.4685C5.85649 11.6334 5.65218 11.764 5.41554 11.86C5.18733 11.9526 4.93934 12.0004 4.66685 12H4.66602C4.10267 12 3.64001 11.8085 3.24874 11.4172C2.85746 11.026 2.66602 10.5633 2.66602 9.99996C2.66602 9.43661 2.85746 8.97396 3.24874 8.58268C3.64001 8.1914 4.10267 7.99996 4.66602 7.99996C4.93877 7.99996 5.18705 8.04808 5.41554 8.14078C5.65246 8.2369 5.85692 8.36734 6.03286 8.53185L6.30482 8.78613L6.62638 8.59846L12.4805 5.18179L12.816 4.98603L12.7093 4.6126C12.6898 4.5443 12.6793 4.48441 12.6755 4.43219C12.6699 4.35626 12.6665 4.26757 12.666 4.16533C12.6663 3.60257 12.8578 3.14032 13.2487 2.74935C13.64 2.35807 14.1027 2.16663 14.666 2.16663C15.2294 2.16663 15.692 2.35807 16.0833 2.74935C16.4746 3.14062 16.666 3.60328 16.666 4.16663C16.666 4.72998 16.4746 5.19263 16.0833 5.58391C15.692 5.97518 15.2294 6.16663 14.666 6.16663C14.3933 6.16663 14.145 6.11851 13.9165 6.02581C13.6796 5.92969 13.4751 5.79924 13.2992 5.63474L13.0272 5.38046L12.7057 5.56813L6.85148 8.98479L6.51606 9.18056L6.62275 9.55399C6.64243 9.62287 6.65329 9.684 6.6576 9.73804C6.66349 9.81192 6.66652 9.8981 6.66602 9.99745C6.66551 10.0997 6.66243 10.1901 6.65714 10.269C6.65377 10.3192 6.64381 10.3757 6.62468 10.4394L6.5113 10.8166L6.85148 11.0151L12.7057 14.4318L13.0277 14.6197L13.2997 14.3647C13.4754 14.2 13.6794 14.0698 13.9157 13.9744C14.1447 13.882 14.3935 13.8338 14.6668 13.8333C15.2298 13.8335 15.6922 14.0249 16.0833 14.416C16.4746 14.8073 16.666 15.2699 16.666 15.8333C16.666 16.3966 16.4746 16.8593 16.0833 17.2506C15.692 17.6419 15.2294 17.8333 14.666 17.8333C14.1027 17.8333 13.64 17.6419 13.2487 17.2506C12.8575 16.8593 12.666 16.3966 12.666 15.8333C12.666 15.8209 12.6684 15.7749 12.6788 15.6782C12.6885 15.5877 12.7034 15.4679 12.7239 15.3175Z" fill="#101828" stroke="#101828"/>
</svg>
