<svg width="21" height="20" viewBox="0 0 21 20" fill="none" xmlns="http://www.w3.org/2000/svg">
<path d="M18.8327 5.20829V9.45827C18.8327 10.5166 18.4827 11.4083 17.8577 12.025C17.241 12.65 16.3494 12.9999 15.291 12.9999V14.5083C15.291 15.0749 14.6577 15.4166 14.191 15.1L13.3827 14.5666C13.4577 14.3083 13.491 14.0249 13.491 13.7249V10.3333C13.491 8.63331 12.3577 7.49996 10.6577 7.49996H4.99934C4.88268 7.49996 4.77435 7.50831 4.66602 7.51664V5.20829C4.66602 3.08329 6.08268 1.66663 8.20768 1.66663H15.291C17.416 1.66663 18.8327 3.08329 18.8327 5.20829Z" stroke="#101828" stroke-width="1.5" stroke-miterlimit="10" stroke-linecap="round" stroke-linejoin="round"/>
<path d="M13.491 10.3334V13.725C13.491 14.025 13.4577 14.3083 13.3827 14.5667C13.0744 15.7917 12.0577 16.5583 10.6577 16.5583H8.39102L5.87435 18.2333C5.49935 18.4917 4.99934 18.2167 4.99934 17.7667V16.5583C4.14934 16.5583 3.44102 16.275 2.94935 15.7833C2.44935 15.2833 2.16602 14.575 2.16602 13.725V10.3334C2.16602 8.75002 3.14935 7.65835 4.66602 7.51668C4.77435 7.50835 4.88268 7.5 4.99934 7.5H10.6577C12.3577 7.5 13.491 8.63335 13.491 10.3334Z" stroke="#101828" stroke-width="1.5" stroke-miterlimit="10" stroke-linecap="round" stroke-linejoin="round"/>
</svg>
