<svg width="46" height="46" viewBox="0 0 46 46" fill="none" xmlns="http://www.w3.org/2000/svg">
<path d="M25.0415 22.797C23.5683 21.3004 23.4245 21.1058 22.6809 19.0935L21.9727 21.1963C25.0041 22.4389 27.6189 26.6066 29.9 29.7653C32.2359 33.0007 36.552 37.764 37.1853 42.2528C38.0246 39.1613 39.3253 39.5593 40.8347 37.0692C35.805 35.0462 28.7076 26.5298 25.0415 22.797Z" fill="#EBEBEB"/>
<path d="M32.082 45.4601C32.4438 44.0151 33.6924 43.3369 34.656 43.9684L34.6353 43.3135C34.6807 42.8284 34.7922 42.3613 34.9633 41.9398C35.1345 41.5183 35.3618 41.1507 35.6319 40.8588C35.9021 40.5669 36.2096 40.3565 36.5364 40.24C36.8632 40.1235 37.2027 40.1031 37.535 40.1802C37.5925 39.0991 38.3676 38.2204 39.1019 38.4043C39.0401 38.0192 39.0558 37.6163 39.1471 37.2437C39.2384 36.8712 39.4014 36.5447 39.6167 36.3033C39.8321 36.0619 40.0906 35.9158 40.3614 35.8823C40.6323 35.8489 40.904 35.9295 41.1442 36.1147C41.5273 35.7641 41.9748 35.5924 42.4269 35.6225C42.8789 35.6527 43.3138 35.8833 43.6732 36.2834C44.0326 36.6835 44.2993 37.2339 44.4375 37.8609C44.5757 38.4878 44.5789 39.1613 44.4465 39.791C45.6021 41.0764 46.0194 43.586 45.3961 45.4961" fill="#EBEBEB"/>
<path d="M21.0664 20.5778L23.0954 18.5683C23.823 18.4292 24.2115 19.4762 24.1808 20.2294C24.3361 20.1123 24.513 20.07 24.686 20.1086C24.859 20.1471 25.019 20.2645 25.1432 20.4439C25.2674 20.6233 25.3492 20.8554 25.377 21.1067C25.4047 21.3581 25.3769 21.6158 25.2976 21.8428C25.7122 21.8729 26.0579 22.4957 25.9911 23.0922C25.9242 23.6887 25.4561 24.1178 25.0595 23.9524C24.796 23.8434 24.5813 23.5262 24.3092 23.4814C24.0537 23.4396 23.815 23.6459 23.5702 23.7587C22.9623 24.0419 22.2668 23.7237 21.808 23.0776C21.3493 22.4315 21.1125 21.5041 21.0664 20.5778Z" fill="#EBEBEB"/>
<path d="M22.3718 19.3158C22.6086 19.4116 22.83 19.5747 23.0232 19.7955C23.0507 19.8272 23.0706 19.8707 23.0801 19.9198C23.0896 19.9688 23.0882 20.021 23.0761 20.0689C23.064 20.1168 23.0419 20.1579 23.0128 20.1864C22.9837 20.2149 22.9492 20.2293 22.9142 20.2276H22.9102C23.1568 20.4776 23.3918 20.751 23.6137 21.0459C23.6449 21.0871 23.6666 21.1413 23.6759 21.201C23.6852 21.2608 23.6816 21.3232 23.6657 21.3799C23.6498 21.4367 23.6223 21.4849 23.5869 21.5181C23.5515 21.5513 23.51 21.5679 23.4679 21.5656C22.7078 21.5195 21.985 21.0738 21.4336 20.3113L22.3718 19.3158Z" fill="#E0E0E0"/>
<path d="M18.7539 19.5641C18.7539 19.5641 18.7539 19.5758 18.7539 19.5874C18.7704 20.2603 18.8906 20.9191 19.1055 21.5153C19.3205 22.1116 19.6247 22.6299 19.9958 23.0321L20.4639 23.544L20.512 21.4772L18.7539 19.5641Z" fill="#E0E0E0"/>
<path d="M20.7461 15.6783L20.7615 15.6715C21.2033 15.5057 21.6651 15.4863 22.1127 15.6146C22.5604 15.7429 22.9826 16.0157 23.3482 16.413L23.813 16.918L22.4835 17.5641L20.7461 15.6783Z" fill="#E0E0E0"/>
<path d="M15.133 12.6104C15.2908 12.3029 16.1274 12.3302 17.3104 12.7963C18.0095 13.0694 18.6741 13.503 19.2792 14.0807L23.2094 18.3487L22.4364 19.855L21.989 20.7308L21.2159 22.2371L17.6475 18.3633C17.2984 17.9856 16.975 17.56 16.6818 17.0924C16.3873 16.6249 16.1189 16.1237 15.8793 15.5939C15.2152 14.1041 14.9792 12.9179 15.137 12.6104" fill="#F5F5F5"/>
<path d="M20.5977 21.5088C20.601 21.5088 21.0498 20.6583 21.6008 19.6006C22.1519 18.5428 22.5919 17.6816 22.5885 17.6768C22.5852 17.6719 22.1365 18.5272 21.5854 19.585C21.0344 20.6427 20.5937 21.5039 20.5977 21.5088Z" fill="#E0E0E0"/>
<path d="M20.7266 21.6163C20.7306 21.6163 21.1787 20.7658 21.7297 19.7081C22.2808 18.6504 22.7215 17.7892 22.7174 17.7853C22.7134 17.7814 22.2654 18.6348 21.7143 19.6935C21.1633 20.7522 20.7226 21.6124 20.7266 21.6163Z" fill="#E0E0E0"/>
<path d="M20.8516 21.7559C20.8549 21.7559 21.3037 20.9065 21.8547 19.8487C22.4058 18.791 22.8458 17.9288 22.8425 17.9249C22.8391 17.921 22.3904 18.7744 21.8393 19.8331C21.2883 20.8919 20.8476 21.7521 20.8516 21.7559Z" fill="#E0E0E0"/>
<path d="M20.9766 21.8966C20.9806 21.8966 21.4293 21.0461 21.9797 19.9884C22.5301 18.9306 22.9708 18.0695 22.9668 18.0646C22.9628 18.0597 22.5147 18.9151 21.9637 19.9728C21.4126 21.0305 20.9732 21.8917 20.9766 21.8966Z" fill="#E0E0E0"/>
<path d="M21.0977 22.0351C21.1017 22.0351 21.5498 21.1856 22.1008 20.1279C22.6519 19.0702 23.0926 18.208 23.0885 18.2041C23.0845 18.2002 22.6365 19.0536 22.0854 20.1123C21.5344 21.171 21.0937 22.0312 21.0977 22.0351Z" fill="#E0E0E0"/>
<path d="M19.75 17.6301L19.766 17.6545C19.7774 17.671 19.7948 17.6895 19.8175 17.7167C19.8624 17.7693 19.9286 17.8442 20.0108 17.9347C20.1747 18.1157 20.404 18.3629 20.6582 18.6334C20.9123 18.9039 21.1437 19.1462 21.3115 19.3213L21.5121 19.5267L21.567 19.5812L21.5864 19.5996C21.5864 19.5996 21.581 19.5909 21.569 19.5773L21.5162 19.5189L21.3202 19.3067L20.6695 18.6129L20.0175 17.9201L19.8209 17.7089C19.7981 17.6836 19.7794 17.6652 19.7681 17.6506C19.7627 17.6427 19.7566 17.6358 19.75 17.6301Z" fill="#E0E0E0"/>
<path d="M18.754 19.5633C18.758 19.5681 19.204 18.7089 19.7504 17.6453C20.2968 16.5817 20.7368 15.7157 20.7328 15.7118C20.7288 15.7079 20.2827 16.5662 19.7364 17.6297C19.19 18.6933 18.7473 19.5594 18.754 19.5633Z" fill="#E0E0E0"/>
<path d="M20.8862 19.3534C20.8862 19.3534 20.8768 19.3534 20.8621 19.3641C20.8417 19.3809 20.8259 19.4074 20.8173 19.439C20.81 19.4628 20.8072 19.4889 20.8092 19.5147C20.8112 19.5406 20.8179 19.5652 20.8286 19.586C20.8414 19.6123 20.8594 19.6322 20.8803 19.6431C20.9011 19.6539 20.9237 19.6552 20.945 19.6467C20.9664 19.6382 20.9854 19.6203 20.9995 19.5955C21.0136 19.5707 21.0221 19.5402 21.0239 19.5081C21.0259 19.4824 21.0231 19.4564 21.0158 19.4328C21.0085 19.4091 20.997 19.3888 20.9825 19.3738C20.9634 19.3522 20.9398 19.3408 20.9156 19.3417C20.8995 19.3417 20.8908 19.3485 20.8915 19.3505C20.8922 19.3524 20.9002 19.3505 20.9156 19.3505C20.9366 19.3547 20.9565 19.3671 20.9731 19.3865C20.985 19.4004 20.9943 19.4186 21 19.4392C21.0057 19.4598 21.0077 19.4822 21.0059 19.5042C21.0035 19.5309 20.996 19.5561 20.9842 19.5768C20.9723 19.5975 20.9566 19.6129 20.939 19.621C20.9209 19.627 20.902 19.6255 20.8845 19.6165C20.867 19.6076 20.8515 19.5916 20.84 19.5704C20.8305 19.5529 20.8244 19.5321 20.8222 19.5101C20.8199 19.4881 20.8217 19.4656 20.8273 19.4449C20.8343 19.4155 20.8474 19.39 20.8648 19.3719C20.8775 19.3534 20.8862 19.3534 20.8862 19.3534Z" fill="#E0E0E0"/>
<path d="M20.1124 18.5458C20.1039 18.5463 20.0956 18.55 20.0883 18.5565C20.0683 18.5743 20.0526 18.6009 20.0435 18.6324C20.0364 18.6561 20.0337 18.6821 20.0359 18.7078C20.038 18.7335 20.0448 18.7578 20.0555 18.7784C20.0682 18.8049 20.0861 18.825 20.107 18.8359C20.1278 18.8469 20.1504 18.8482 20.1718 18.8397C20.1931 18.8311 20.2121 18.8132 20.2262 18.7883C20.2402 18.7633 20.2486 18.7327 20.2501 18.7005C20.2521 18.6749 20.2494 18.649 20.2422 18.6254C20.235 18.6018 20.2237 18.5814 20.2094 18.5663C20.1901 18.5453 20.1665 18.5343 20.1425 18.5351C20.1341 18.5345 20.1258 18.5372 20.1184 18.5429C20.1264 18.5437 20.1345 18.5437 20.1425 18.5429C20.1637 18.5462 20.1838 18.5587 20.2 18.5789C20.212 18.5924 20.2214 18.6104 20.2272 18.6309C20.2329 18.6514 20.2349 18.6737 20.2328 18.6957C20.2312 18.7229 20.2239 18.7487 20.2119 18.7697C20.1999 18.7906 20.1838 18.8057 20.1657 18.8129C20.1476 18.8202 20.1284 18.8191 20.1108 18.81C20.0931 18.8009 20.0778 18.7841 20.0669 18.7619C20.0574 18.7444 20.0513 18.7236 20.0491 18.7016C20.0468 18.6795 20.0486 18.657 20.0542 18.6363C20.0612 18.6072 20.074 18.5818 20.091 18.5633C20.1044 18.5517 20.1131 18.5478 20.1124 18.5458Z" fill="#E0E0E0"/>
<path d="M23.7614 22.1479C23.8045 22.1262 23.8517 22.1299 23.8928 22.1583C23.934 22.1866 23.9659 22.2374 23.9816 22.2996C23.9973 22.3618 23.9956 22.4305 23.9769 22.491C23.9582 22.5514 23.9239 22.5987 23.8814 22.6227C23.839 22.6467 23.7917 22.6456 23.7499 22.6194C23.708 22.5933 23.6748 22.5443 23.6576 22.483C23.6403 22.4217 23.6402 22.3529 23.6574 22.2915C23.6745 22.2301 23.7076 22.181 23.7494 22.1547" fill="#E0E0E0"/>
<path d="M16.9547 15.9623C17.0146 16.2063 17.1228 16.4189 17.2657 16.5734C17.4086 16.7279 17.5798 16.8173 17.7576 16.8302C17.9354 16.8431 18.1119 16.779 18.2647 16.646C18.4174 16.5129 18.5397 16.317 18.6159 16.0829C18.6922 15.8488 18.719 15.587 18.693 15.3307C18.667 15.0745 18.5893 14.8352 18.4698 14.6431C18.3504 14.451 18.1944 14.3148 18.0217 14.2517C17.8491 14.1886 17.6674 14.2015 17.4997 14.2886C17.275 14.4054 17.0913 14.6473 16.989 14.9612C16.8868 15.2751 16.8745 15.6352 16.9547 15.9623Z" fill="white"/>
<path d="M16.9553 15.9594C16.9375 15.8556 16.9241 15.7503 16.9152 15.6441C16.8988 15.3524 16.9501 15.0611 17.061 14.817C17.1365 14.6492 17.2379 14.5095 17.3573 14.4092C17.4946 14.2947 17.6504 14.2352 17.8087 14.237C17.9828 14.2398 18.1526 14.317 18.2968 14.4589C18.4523 14.6111 18.5701 14.8317 18.6332 15.0883C18.6962 15.345 18.7012 15.6243 18.6473 15.8854C18.5972 16.1283 18.4993 16.3445 18.3657 16.5072C18.2523 16.6448 18.1169 16.7388 17.9721 16.7806C17.8272 16.8224 17.6774 16.8107 17.5365 16.7466C17.3442 16.6603 17.1776 16.482 17.0637 16.2406C17.0241 16.1501 16.9884 16.0562 16.9567 15.9594C16.9612 15.9867 16.9675 16.0134 16.9754 16.0392C16.9827 16.0728 16.9921 16.1053 17.0035 16.1365C17.0173 16.1783 17.0331 16.2186 17.051 16.2571C17.1459 16.4698 17.2811 16.638 17.4402 16.7416C17.5992 16.8452 17.7755 16.8797 17.9478 16.841C18.1101 16.8034 18.2624 16.7025 18.3885 16.549C18.4576 16.4685 18.5177 16.3726 18.5663 16.2649C18.6185 16.1541 18.6583 16.0319 18.684 15.9029C18.7408 15.6305 18.7358 15.3387 18.67 15.0707C18.6041 14.8026 18.4808 14.5725 18.3182 14.4141C18.1676 14.2666 17.9903 14.1874 17.8087 14.1864C17.6441 14.1854 17.4824 14.2489 17.3405 14.3703C17.1904 14.499 17.0689 14.688 16.9907 14.9146C16.9126 15.1413 16.881 15.3959 16.8998 15.648C16.9028 15.6942 16.9082 15.7401 16.9159 15.7852C16.92 15.8184 16.9263 15.851 16.9346 15.8825C16.9399 15.909 16.9468 15.9347 16.9553 15.9594Z" fill="#E0E0E0"/>
<path d="M15.1331 12.6104C15.2909 12.3029 16.1275 12.3302 17.3105 12.7963L15.8754 15.5939C15.2113 14.1041 14.9753 12.9179 15.1331 12.6104Z" fill="#E0E0E0"/>
<path d="M15.1322 12.6109C15.1322 12.6109 15.1242 12.6294 15.1088 12.6693C15.0926 12.7315 15.0835 12.7973 15.082 12.8639C15.0857 13.1217 15.1187 13.3769 15.1797 13.619C15.3234 14.2554 15.6224 15.1389 16.1119 16.1227C16.383 16.6584 16.6848 17.1597 17.014 17.6213C17.1999 17.8773 17.3952 18.1183 17.5992 18.3433L18.2526 19.0546L21.1991 22.258L21.2144 22.2745L21.2258 22.2521L22.2229 20.306C22.564 19.6394 22.8997 18.9855 23.2193 18.3598L23.2307 18.3374L23.2153 18.3199L20.2662 15.1224L19.6128 14.4189L19.3005 14.0802C19.1948 13.9712 19.0872 13.8778 18.9802 13.7883C18.5835 13.4577 18.1661 13.1827 17.7336 12.967C17.3782 12.7967 17.0157 12.6596 16.6482 12.5564C16.3731 12.4749 16.0941 12.4239 15.8136 12.4036C15.6368 12.385 15.4591 12.408 15.2873 12.4717C15.2622 12.4843 15.2376 12.4993 15.2138 12.5165C15.197 12.53 15.1809 12.5453 15.1656 12.5622C15.1436 12.5943 15.1335 12.6119 15.1335 12.6119L15.1676 12.5661C15.1833 12.5505 15.1996 12.5363 15.2164 12.5233C15.2404 12.5074 15.265 12.4934 15.29 12.4815C15.4612 12.4228 15.6377 12.4034 15.813 12.424C16.0924 12.4478 16.3702 12.5015 16.6442 12.5846C17.01 12.6911 17.371 12.8305 17.7249 13.0021C18.1552 13.2193 18.5703 13.4952 18.9648 13.8263C19.0711 13.9158 19.1788 14.0111 19.2818 14.1182L19.5934 14.4578L20.2474 15.1691L23.1939 18.3725L23.1899 18.3326L22.1928 20.2787L21.1964 22.2249L21.2231 22.2191L18.2753 19.0157L17.6213 18.3063C17.4174 18.0836 17.2223 17.8445 17.0368 17.5901C16.708 17.1317 16.4064 16.6337 16.1353 16.1013C15.6444 15.1282 15.3428 14.2457 15.195 13.6132C15.1336 13.3733 15.0988 13.1207 15.0921 12.8649C15.0926 12.7986 15.1002 12.733 15.1148 12.6702C15.1322 12.6323 15.1322 12.6109 15.1322 12.6109Z" fill="#E0E0E0"/>
<path d="M17.8775 16.4933C17.8796 16.4048 17.8744 16.3163 17.8622 16.2296C17.8468 16.0681 17.8194 15.8472 17.7866 15.6039L17.699 14.9811C17.6907 14.8937 17.6766 14.8077 17.6569 14.7242C17.6544 14.8127 17.6595 14.9013 17.6722 14.9879C17.6876 15.1495 17.715 15.3713 17.7478 15.6146C17.7806 15.8579 17.81 16.0564 17.8347 16.2364C17.8434 16.3238 17.8577 16.4098 17.8775 16.4933Z" fill="#E0E0E0"/>
<path d="M18.0386 16.1843C18.0366 15.9912 18.0216 15.7989 17.9937 15.6102C17.9788 15.4181 17.9508 15.2288 17.9102 15.0448C17.912 15.2379 17.927 15.4302 17.955 15.6189C17.9701 15.8109 17.9981 16.0002 18.0386 16.1843Z" fill="#E0E0E0"/>
<path d="M40.0142 33.4468L38.1129 32.104C38.0503 32.0585 38.0024 31.9792 37.9795 31.8829C37.9567 31.7867 37.9606 31.6813 37.9905 31.5892L39.2712 27.7631C39.3024 27.672 39.357 27.6023 39.4231 27.569C39.4892 27.5357 39.5617 27.5415 39.625 27.585L40.8287 28.4394L41.2935 30.4994L40.3666 33.2717C40.335 33.3618 40.2806 33.4305 40.2148 33.4631C40.149 33.4958 40.077 33.49 40.0142 33.4468Z" fill="#EBEBEB"/>
<path d="M40.8307 28.437L40.4702 29.5142C40.4561 29.5564 40.4478 29.6022 40.4458 29.649C40.4438 29.6959 40.4482 29.7428 40.4587 29.7872C40.4692 29.8316 40.4856 29.8725 40.5069 29.9076C40.5283 29.9428 40.5542 29.9714 40.5832 29.992L41.2955 30.497L40.8307 28.437Z" fill="#E0E0E0"/>
<path d="M40.3208 29.3546C40.3161 29.3692 40.1155 29.2407 39.8727 29.0685C39.7232 28.9726 39.579 28.86 39.4414 28.7318C39.5956 28.8105 39.7454 28.9065 39.8895 29.0189C40.039 29.1142 40.1833 29.2265 40.3208 29.3546Z" fill="white"/>
<path d="M40.6894 30.3662C40.6847 30.3808 40.355 30.1619 39.9578 29.8797C39.5605 29.5975 39.2382 29.3561 39.2422 29.3425C39.2462 29.3289 39.5766 29.5469 39.9745 29.8291C40.3724 30.1113 40.6941 30.3516 40.6894 30.3662Z" fill="white"/>
<path d="M40.6473 30.9673C40.6426 30.981 40.2861 30.7426 39.8508 30.4331C39.4154 30.1237 39.0657 29.8639 39.0704 29.8493C39.075 29.8347 39.4315 30.074 39.8675 30.3825C40.3035 30.691 40.6519 30.9537 40.6473 30.9673Z" fill="white"/>
<path d="M40.4871 31.4482C40.4824 31.4618 40.126 31.2234 39.6906 30.9139C39.2553 30.6045 38.9055 30.3447 38.9102 30.3301C38.9149 30.3155 39.2713 30.5549 39.7073 30.8633C40.1434 31.1718 40.4918 31.4345 40.4871 31.4482Z" fill="white"/>
<path d="M40.323 31.9239C40.3184 31.9375 39.9619 31.6991 39.5259 31.3897C39.0899 31.0802 38.7415 30.8204 38.7461 30.8058C38.7508 30.7912 39.1073 31.0306 39.5433 31.3391C39.9793 31.6475 40.3277 31.9103 40.323 31.9239Z" fill="white"/>
<path d="M40.1629 32.4048C40.1582 32.4185 39.8011 32.1801 39.3657 31.8706C38.9304 31.5612 38.5813 31.3014 38.586 31.2868C38.5907 31.2722 38.9471 31.5115 39.3825 31.82C39.8178 32.1285 40.1676 32.3932 40.1629 32.4048Z" fill="white"/>
<path d="M13.9291 19.6906C13.8982 20.3516 13.7332 20.9844 13.4551 21.5089C13.1769 22.0335 12.7981 22.4261 12.3665 22.6373C11.9349 22.8484 11.47 22.8685 11.0306 22.695C10.5912 22.5215 10.197 22.1622 9.89794 21.6626C9.59889 21.163 9.40842 20.5456 9.35064 19.8884C9.29286 19.2313 9.37035 18.5639 9.57332 17.9709C9.77629 17.3778 10.0956 16.8857 10.4909 16.5568C10.8861 16.2279 11.3395 16.077 11.7937 16.1233C12.402 16.1844 12.9686 16.5946 13.3691 17.2635C13.7695 17.9325 13.9709 18.8055 13.9291 19.6906Z" fill="#F5F5F5"/>
<path d="M13.3818 19.6365C13.3582 20.1401 13.2324 20.6223 13.0204 21.0219C12.8084 21.4215 12.5197 21.7206 12.1909 21.8814C11.862 22.0422 11.5078 22.0575 11.173 21.9252C10.8382 21.7929 10.5378 21.5191 10.31 21.1384C10.0822 20.7577 9.93707 20.2873 9.89307 19.7865C9.84907 19.2858 9.90814 18.7773 10.0628 18.3254C10.2175 17.8736 10.4608 17.4986 10.762 17.248C11.0631 16.9975 11.4086 16.8825 11.7547 16.9177C11.9842 16.9407 12.2084 17.0293 12.4144 17.1783C12.6204 17.3274 12.8043 17.5341 12.9554 17.7866C13.1064 18.0391 13.2219 18.3324 13.295 18.6498C13.3682 18.9672 13.3977 19.3025 13.3818 19.6365Z" fill="#EBEBEB"/>
<path d="M13.3815 19.5538C13.3708 19.5538 13.3688 19.4399 13.3501 19.2424C13.3243 18.9646 13.2688 18.6944 13.1856 18.4415C13.0624 18.0693 12.8788 17.7464 12.6506 17.5006C12.5854 17.4287 12.5168 17.3637 12.4453 17.306C12.3708 17.2474 12.2934 17.1966 12.2139 17.1542C12.1313 17.1109 12.0466 17.0767 11.9605 17.052C11.8722 17.0266 11.7828 17.011 11.693 17.0053C11.6037 17.0013 11.5143 17.0065 11.4255 17.0208C11.3382 17.0361 11.2519 17.0612 11.1673 17.0958C11.0856 17.1282 11.0057 17.1702 10.9286 17.2213C10.8541 17.2687 10.7823 17.3247 10.7139 17.3887C10.5862 17.5052 10.4695 17.6455 10.3668 17.8061C10.2771 17.9467 10.1983 18.1014 10.1321 18.2674C10.0364 18.5099 9.96692 18.7725 9.92613 19.0458C9.89737 19.2404 9.88935 19.3533 9.87865 19.3523C9.86795 19.3514 9.86126 19.2385 9.87464 19.0341C9.89676 18.7428 9.95595 18.46 10.0492 18.2002C10.1134 18.0195 10.1922 17.8506 10.2839 17.6971C10.39 17.5201 10.5122 17.365 10.647 17.2359C10.7198 17.1657 10.796 17.1036 10.8751 17.05C10.9577 16.9937 11.0434 16.9472 11.1312 16.9109C11.2223 16.8724 11.3153 16.8444 11.4094 16.8272C11.5062 16.8106 11.6036 16.8047 11.701 16.8097C11.7985 16.8156 11.8955 16.8325 11.9912 16.8603C12.0839 16.8878 12.1749 16.9258 12.2634 16.9741C12.5827 17.149 12.8611 17.4528 13.0659 17.8499C13.1492 18.0135 13.2191 18.1909 13.2739 18.3783C13.353 18.648 13.397 18.9367 13.4036 19.2297C13.405 19.4419 13.3896 19.5538 13.3815 19.5538Z" fill="#E0E0E0"/>
<path d="M11.7573 20.9935L11.7406 21.4373L11.4684 21.4158L11.4852 20.9838C11.2177 20.9381 10.9622 20.7941 10.8164 20.6121L10.9843 20.1401C11.1344 20.312 11.3129 20.4237 11.5019 20.4642L11.5273 19.8025C11.229 19.6711 10.8967 19.4979 10.9187 18.9267C10.9348 18.5073 11.1581 18.1628 11.5875 18.1268L11.6049 17.687L11.877 17.7084L11.8603 18.1405C12.0549 18.1739 12.2412 18.2739 12.404 18.4324L12.2495 18.9082C12.1252 18.7902 11.9861 18.7089 11.8403 18.6688L11.8148 19.3422C12.1131 19.4697 12.4395 19.6439 12.4167 20.2024C12.4087 20.6131 12.188 20.9536 11.7573 20.9935ZM11.552 19.2206L11.5734 18.6581C11.4276 18.6932 11.3661 18.8041 11.3608 18.9345C11.3554 19.0649 11.4343 19.1593 11.552 19.2206ZM11.984 20.2131C11.9894 20.0749 11.9132 19.9932 11.7988 19.9212L11.7774 20.4681C11.9152 20.4379 11.9794 20.3396 11.984 20.2131Z" fill="#E0E0E0"/>
<path d="M43.7505 9.58002C43.7271 10.0851 43.6011 10.5687 43.3887 10.9696C43.1762 11.3705 42.8868 11.6706 42.557 11.832C42.2273 11.9935 41.872 12.0089 41.5362 11.8764C41.2004 11.7439 40.8992 11.4694 40.6707 11.0877C40.4422 10.7059 40.2966 10.2341 40.2525 9.73198C40.2083 9.22983 40.2676 8.71991 40.4227 8.26677C40.5778 7.81363 40.8218 7.43764 41.1239 7.1864C41.4259 6.93516 41.7724 6.81996 42.1195 6.8554C42.5841 6.90205 43.0169 7.2153 43.3228 7.72625C43.6286 8.2372 43.7825 8.904 43.7505 9.58002Z" fill="#F5F5F5"/>
<path d="M43.3319 9.54042C43.3136 9.9243 43.2175 10.2917 43.0557 10.5961C42.8939 10.9005 42.6737 11.1283 42.423 11.2506C42.1723 11.373 41.9022 11.3845 41.647 11.2836C41.3918 11.1827 41.1629 10.974 40.9892 10.6838C40.8154 10.3937 40.7047 10.0351 40.6711 9.65344C40.6374 9.27176 40.6822 8.88412 40.7999 8.5395C40.9176 8.19489 41.1028 7.90878 41.3322 7.71732C41.5616 7.52587 41.8249 7.43767 42.0887 7.46387C42.2641 7.48129 42.4354 7.54883 42.5928 7.66265C42.7502 7.77646 42.8907 7.93431 43.0061 8.12717C43.1216 8.32003 43.2098 8.54412 43.2657 8.78661C43.3216 9.02911 43.3441 9.28526 43.3319 9.54042Z" fill="#EBEBEB"/>
<path d="M43.3363 9.47708C43.323 9.39895 43.3149 9.3191 43.3123 9.23867C43.2926 9.02679 43.2504 8.82064 43.1872 8.62758C43.1432 8.49554 43.0894 8.3709 43.0267 8.25586C42.9549 8.12472 42.8717 8.00763 42.7793 7.9075C42.729 7.85345 42.676 7.80498 42.6208 7.76251C42.564 7.71676 42.5047 7.67771 42.4436 7.64574C42.3806 7.61263 42.316 7.58628 42.2503 7.56692C42.1825 7.54826 42.1139 7.53655 42.045 7.53189C41.976 7.52874 41.9069 7.53297 41.8384 7.54454C41.7705 7.55549 41.7035 7.57436 41.6377 7.60098C41.5755 7.62679 41.5147 7.65932 41.4558 7.69829C41.3988 7.73484 41.3438 7.77779 41.2913 7.82674C41.1081 7.99492 40.9557 8.22533 40.8473 8.49816C40.7739 8.68365 40.7207 8.88453 40.6894 9.09368C40.683 9.17345 40.6709 9.25203 40.6533 9.3282C40.6416 9.24801 40.6416 9.16512 40.6533 9.08493C40.6705 8.86227 40.7158 8.64616 40.7871 8.44756C40.8363 8.30798 40.8967 8.17733 40.967 8.05833C41.0481 7.92353 41.1412 7.80507 41.2438 7.70607C41.2999 7.65279 41.3584 7.60532 41.4191 7.56401C41.4832 7.52189 41.5497 7.48739 41.6177 7.46086C41.6873 7.43124 41.7584 7.40977 41.8303 7.39664C41.9042 7.38376 41.9787 7.37921 42.053 7.38301C42.1274 7.38801 42.2014 7.40102 42.2744 7.42194C42.3454 7.44285 42.4152 7.47214 42.483 7.50951C42.5484 7.5448 42.6117 7.58776 42.6723 7.63796C42.7306 7.68498 42.7863 7.73867 42.8388 7.79852C42.9361 7.90845 43.0227 8.0371 43.0963 8.18094C43.1601 8.30554 43.2136 8.44078 43.2554 8.58379C43.3157 8.78974 43.3492 9.01011 43.3544 9.23381C43.3603 9.31584 43.3541 9.39875 43.3363 9.47708Z" fill="#E0E0E0"/>
<path d="M42.0919 10.5771L42.0792 10.9168L41.8712 10.8992L41.8832 10.5694C41.6988 10.5463 41.5226 10.4478 41.375 10.2852L41.5034 9.92518C41.6182 10.0562 41.7544 10.1417 41.8986 10.1733L41.918 9.66732C41.69 9.57001 41.4365 9.43378 41.4499 9.00076C41.4619 8.67964 41.6325 8.41691 41.9635 8.38967L41.9762 8.05396L42.1842 8.0705L42.1715 8.40037C42.3199 8.42411 42.4623 8.49918 42.5868 8.61931L42.4691 8.98325C42.3744 8.89267 42.2682 8.83048 42.1568 8.80031L42.1367 9.31506C42.3647 9.41237 42.6142 9.54471 42.5981 9.97189C42.5894 10.2862 42.4196 10.546 42.0919 10.5771ZM41.9347 9.22262L41.9515 8.79252C41.8398 8.81977 41.793 8.90443 41.789 9.00368C41.7849 9.10293 41.8451 9.173 41.9347 9.22262ZM42.2651 9.98065C42.2691 9.87459 42.2109 9.81231 42.1233 9.75976L42.1073 10.1772C42.2123 10.1529 42.2611 10.078 42.2651 9.98065Z" fill="#E0E0E0"/>
<path d="M23.668 28.2708C23.705 28.6327 23.6675 29.0025 23.56 29.3333C23.4526 29.6641 23.2801 29.9411 23.0644 30.1292C22.8487 30.3173 22.5995 30.408 22.3484 30.3899C22.0973 30.3718 21.8554 30.2457 21.6536 30.0275C21.4517 29.8093 21.2989 29.5089 21.2144 29.1643C21.13 28.8196 21.1177 28.4463 21.1792 28.0915C21.2406 27.7367 21.373 27.4164 21.5596 27.1712C21.7463 26.9259 21.9787 26.7668 22.2275 26.7139C22.5603 26.6431 22.8989 26.7673 23.1689 27.0591C23.4389 27.351 23.6184 27.7867 23.668 28.2708Z" fill="#F5F5F5"/>
<path d="M23.3651 28.3379C23.3932 28.614 23.3643 28.896 23.2822 29.1481C23.2 29.4003 23.0683 29.6113 22.9037 29.7545C22.7391 29.8977 22.549 29.9666 22.3575 29.9525C22.1659 29.9383 21.9816 29.8418 21.8278 29.6752C21.6739 29.5085 21.5576 29.2792 21.4934 29.0162C21.4292 28.7532 21.4201 28.4685 21.4672 28.198C21.5143 27.9275 21.6155 27.6834 21.758 27.4966C21.9005 27.3099 22.0779 27.1888 22.2677 27.1488C22.5216 27.0948 22.7798 27.1898 22.9856 27.4128C23.1914 27.6358 23.3279 27.9685 23.3651 28.3379Z" fill="#EBEBEB"/>
<path d="M23.3589 28.2928C23.3408 28.2414 23.3266 28.1873 23.3168 28.1313C23.2802 27.9856 23.2283 27.849 23.163 27.7265C23.0672 27.546 22.9422 27.4029 22.7992 27.31C22.7583 27.2826 22.716 27.2598 22.6728 27.2419C22.629 27.2228 22.5843 27.2084 22.539 27.1991C22.4414 27.1807 22.3424 27.1836 22.2454 27.2079C22.1965 27.2213 22.1482 27.2395 22.101 27.2624C22.055 27.2858 22.0103 27.3141 21.9672 27.347C21.926 27.3788 21.8865 27.4149 21.8489 27.455C21.8127 27.4939 21.7785 27.5365 21.7465 27.5825C21.687 27.6674 21.6353 27.7633 21.5927 27.8676C21.5555 27.9598 21.5254 28.0577 21.5031 28.1595C21.4712 28.3072 21.4549 28.4611 21.455 28.6159C21.4587 28.6735 21.4587 28.7315 21.455 28.7891C21.4372 28.7357 21.4276 28.6772 21.4269 28.6179C21.4151 28.4569 21.4242 28.2942 21.4536 28.1381C21.474 28.0295 21.503 27.9247 21.5399 27.8258C21.5829 27.7124 21.6362 27.6079 21.6984 27.5154C21.732 27.465 21.7682 27.4185 21.8067 27.3762C21.8468 27.3313 21.8893 27.2913 21.9338 27.2565C21.9798 27.2204 22.0276 27.1895 22.0769 27.1641C22.1789 27.1124 22.2859 27.0848 22.3939 27.0823C22.4463 27.0816 22.4986 27.0868 22.5504 27.0979C22.6002 27.1082 22.6494 27.1241 22.6975 27.1456C22.7433 27.1665 22.788 27.1922 22.8313 27.2225C22.9118 27.2781 22.9867 27.3495 23.0539 27.4346C23.1124 27.5086 23.1645 27.5925 23.2091 27.6847C23.2735 27.8165 23.3205 27.9647 23.3475 28.1216C23.3592 28.177 23.363 28.2352 23.3589 28.2928Z" fill="#E0E0E0"/>
<path d="M22.5967 29.3504L22.6234 29.5927L22.475 29.6277L22.4489 29.3922C22.3159 29.4164 22.1808 29.386 22.059 29.3047L22.1118 29.0215C22.2068 29.0886 22.3121 29.1184 22.4174 29.1081L22.378 28.7461C22.2061 28.7266 22.0129 28.6897 21.9767 28.3802C21.9513 28.1506 22.0436 27.9268 22.275 27.8334L22.2489 27.593L22.3974 27.558L22.4235 27.7944C22.5308 27.7779 22.6392 27.7989 22.7398 27.8557L22.695 28.1389C22.6184 28.0965 22.5368 28.0764 22.4549 28.0796L22.4957 28.4483C22.6669 28.4659 22.8575 28.5038 22.8909 28.8084C22.9177 29.0341 22.8261 29.255 22.5967 29.3504ZM22.3425 28.4279L22.3091 28.1214C22.2329 28.1652 22.2088 28.2352 22.2162 28.3073C22.2235 28.3793 22.2737 28.4133 22.3425 28.4279ZM22.6562 28.8901C22.6475 28.8142 22.6 28.7841 22.5325 28.7656L22.5652 29.0653C22.6375 29.0234 22.6635 28.9602 22.6562 28.893V28.8901Z" fill="#E0E0E0"/>
<path d="M1.60502 33.8344V35.8662C1.60502 35.892 1.59797 35.9168 1.58543 35.935C1.57289 35.9533 1.55588 35.9635 1.53814 35.9635H1.41844C1.4007 35.9635 1.38369 35.9738 1.37115 35.992C1.35861 36.0103 1.35156 36.035 1.35156 36.0609V36.1017C1.35156 36.1275 1.35861 36.1523 1.37115 36.1705C1.38369 36.1888 1.4007 36.199 1.41844 36.199H1.53614C1.55387 36.199 1.57088 36.2093 1.58342 36.2275C1.59597 36.2458 1.60301 36.2705 1.60301 36.2963V37.5905C1.60301 37.6163 1.61006 37.6411 1.6226 37.6593C1.63514 37.6776 1.65215 37.6878 1.66989 37.6878H6.32437C6.3421 37.6878 6.35911 37.6776 6.37165 37.6593C6.3842 37.6411 6.39124 37.6163 6.39124 37.5905V36.4462C6.39124 36.4204 6.3842 36.3956 6.37165 36.3774C6.35911 36.3591 6.3421 36.3489 6.32437 36.3489H6.10769C6.08996 36.3489 6.07295 36.3386 6.06041 36.3204C6.04786 36.3021 6.04082 36.2774 6.04082 36.2516V36.1543C6.04082 36.1285 6.04786 36.1037 6.06041 36.0855C6.07295 36.0672 6.08996 36.057 6.10769 36.057H6.32437C6.3421 36.057 6.35911 36.0467 6.37165 36.0285C6.3842 36.0102 6.39124 35.9855 6.39124 35.9596V35.7037C6.39124 35.6779 6.39829 35.6532 6.41083 35.6349C6.42337 35.6167 6.44038 35.6064 6.45812 35.6064H6.47751C6.49525 35.6064 6.51226 35.5962 6.5248 35.5779C6.53734 35.5597 6.54438 35.5349 6.54438 35.5091C6.54438 35.4833 6.53734 35.4586 6.5248 35.4403C6.51226 35.4221 6.49525 35.4118 6.47751 35.4118H6.43872C6.42099 35.4118 6.40398 35.4016 6.39143 35.3833C6.37889 35.3651 6.37185 35.3403 6.37185 35.3145V33.8344C6.37185 33.8086 6.3648 33.7839 6.35226 33.7656C6.33972 33.7474 6.32271 33.7371 6.30497 33.7371H1.67457C1.66556 33.7366 1.65658 33.7387 1.64815 33.7434C1.63973 33.7481 1.63204 33.7551 1.62554 33.7642C1.61904 33.7733 1.61388 33.7842 1.61035 33.7963C1.60682 33.8084 1.60501 33.8213 1.60502 33.8344Z" fill="#F5F5F5"/>
<path d="M5.12891 33.8402V37.5797C5.12891 37.6056 5.13595 37.6303 5.14849 37.6486C5.16103 37.6668 5.17804 37.6771 5.19578 37.6771H6.33265C6.35039 37.6771 6.3674 37.6668 6.37994 37.6486C6.39248 37.6303 6.39953 37.6056 6.39953 37.5797V36.4208C6.39953 36.395 6.39248 36.3703 6.37994 36.352C6.3674 36.3338 6.35039 36.3235 6.33265 36.3235H6.11598C6.09824 36.3235 6.08123 36.3133 6.06869 36.295C6.05615 36.2768 6.0491 36.252 6.0491 36.2262V36.1581C6.0491 36.1323 6.05615 36.1075 6.06869 36.0893C6.08123 36.071 6.09824 36.0608 6.11598 36.0608L6.32998 36.0666C6.34771 36.0666 6.36472 36.0564 6.37726 36.0381C6.38981 36.0199 6.39685 35.9951 6.39685 35.9693V35.729C6.39685 35.7031 6.4039 35.6784 6.41644 35.6601C6.42898 35.6419 6.44599 35.6316 6.46373 35.6316H6.48446C6.49359 35.6317 6.50262 35.629 6.51101 35.6237C6.5194 35.6185 6.52696 35.6108 6.53322 35.6011C6.53949 35.5914 6.54433 35.58 6.54744 35.5675C6.55056 35.555 6.55188 35.5418 6.55133 35.5285V35.4983C6.55133 35.4725 6.54429 35.4478 6.53174 35.4295C6.5192 35.4113 6.50219 35.401 6.48446 35.401H6.43163C6.41389 35.401 6.39688 35.3908 6.38434 35.3725C6.3718 35.3543 6.36475 35.3295 6.36475 35.3037V33.8344C6.36475 33.8086 6.35771 33.7838 6.34516 33.7656C6.33262 33.7473 6.31561 33.7371 6.29788 33.7371L5.19377 33.7429C5.17639 33.7437 5.15989 33.7542 5.14778 33.7724C5.13567 33.7906 5.1289 33.8149 5.12891 33.8402Z" fill="#E0E0E0"/>
<path d="M5.21858 36.177C5.21858 36.1907 4.34921 36.2014 3.27921 36.2014C2.20922 36.2014 1.33984 36.1907 1.33984 36.177C1.33984 36.1634 2.20922 36.1517 3.27921 36.1517C4.34921 36.1517 5.21858 36.1634 5.21858 36.177Z" fill="#E0E0E0"/>
<path d="M5.21858 35.9485C5.21858 35.9621 4.34921 35.9738 3.27921 35.9738C2.20922 35.9738 1.33984 35.9621 1.33984 35.9485C1.33984 35.9349 2.20922 35.9242 3.27921 35.9242C4.34921 35.9242 5.21858 35.9349 5.21858 35.9485Z" fill="#E0E0E0"/>
<path d="M5.46467 35.3394C5.46467 35.353 4.5953 35.3637 3.5253 35.3637C2.45531 35.3637 1.58594 35.353 1.58594 35.3394C1.58594 35.3258 2.45531 35.3141 3.5253 35.3141C4.5953 35.3141 5.46467 35.3248 5.46467 35.3394Z" fill="#E0E0E0"/>
<path d="M5.49202 37.0035C5.49202 37.0171 4.62264 37.0288 3.55265 37.0288C2.48265 37.0288 1.61328 37.0171 1.61328 37.0035C1.61328 36.9898 2.48265 36.9791 3.55265 36.9791C4.62264 36.9791 5.49202 36.9898 5.49202 37.0035Z" fill="#E0E0E0"/>
<path d="M1.96897 37.697V39.7298C1.96897 39.7556 1.96192 39.7803 1.94938 39.7986C1.93684 39.8168 1.91983 39.8271 1.90209 39.8271H1.78172C1.76398 39.8271 1.74697 39.8373 1.73443 39.8556C1.72189 39.8738 1.71484 39.8986 1.71484 39.9244V39.9652C1.71484 39.991 1.72189 40.0158 1.73443 40.034C1.74697 40.0523 1.76398 40.0625 1.78172 40.0625H1.89942C1.91715 40.0625 1.93416 40.0728 1.94671 40.091C1.95925 40.1093 1.96629 40.134 1.96629 40.1599V41.4531C1.96629 41.4789 1.97334 41.5036 1.98588 41.5219C1.99842 41.5401 2.01543 41.5504 2.03317 41.5504H6.68698C6.70472 41.5504 6.72173 41.5401 6.73427 41.5219C6.74681 41.5036 6.75385 41.4789 6.75385 41.4531V40.3087C6.75385 40.2829 6.74681 40.2582 6.73427 40.2399C6.72173 40.2217 6.70472 40.2114 6.68698 40.2114H6.47097C6.45324 40.2114 6.43623 40.2012 6.42369 40.1829C6.41114 40.1647 6.4041 40.1399 6.4041 40.1141V40.0168C6.4041 39.991 6.41114 39.9663 6.42369 39.948C6.43623 39.9298 6.45324 39.9195 6.47097 39.9195H6.68698C6.70472 39.9195 6.72173 39.9093 6.73427 39.891C6.74681 39.8728 6.75385 39.848 6.75385 39.8222V39.5789C6.75385 39.5531 6.7609 39.5284 6.77344 39.5101C6.78598 39.4919 6.80299 39.4816 6.82073 39.4816H6.83945C6.85719 39.4816 6.8742 39.4714 6.88674 39.4531C6.89928 39.4349 6.90633 39.4101 6.90633 39.3843C6.90633 39.3585 6.89928 39.3338 6.88674 39.3155C6.8742 39.2973 6.85719 39.287 6.83945 39.287H6.7913C6.77357 39.287 6.75656 39.2768 6.74402 39.2585C6.73147 39.2403 6.72443 39.2155 6.72443 39.1897V37.697C6.72443 37.6712 6.71738 37.6464 6.70484 37.6282C6.6923 37.6099 6.67529 37.5997 6.65755 37.5997H2.03852C2.02951 37.5992 2.02053 37.6013 2.0121 37.6059C2.00368 37.6106 1.99599 37.6177 1.98949 37.6268C1.98299 37.6359 1.97783 37.6468 1.9743 37.6588C1.97077 37.6709 1.96896 37.6839 1.96897 37.697Z" fill="#F5F5F5"/>
<path d="M5.48828 37.7028V41.4452C5.48828 41.471 5.49533 41.4958 5.50787 41.514C5.52041 41.5323 5.53742 41.5425 5.55516 41.5425H6.69203C6.70976 41.5425 6.72677 41.5323 6.73931 41.514C6.75186 41.4958 6.7589 41.471 6.7589 41.4452V40.2834C6.7589 40.2576 6.75186 40.2328 6.73931 40.2146C6.72677 40.1963 6.70976 40.1861 6.69203 40.1861H6.47602C6.45829 40.1861 6.44128 40.1758 6.42873 40.1576C6.41619 40.1393 6.40915 40.1146 6.40915 40.0887V40.0206C6.40913 40.0073 6.41098 39.9942 6.41459 39.982C6.4182 39.9698 6.42349 39.9588 6.43013 39.9497C6.43677 39.9406 6.44463 39.9335 6.45321 39.929C6.46179 39.9244 6.47092 39.9225 6.48003 39.9233L6.69336 39.9292C6.70248 39.93 6.71161 39.928 6.72019 39.9235C6.72877 39.919 6.73663 39.9119 6.74327 39.9028C6.74991 39.8937 6.7552 39.8827 6.75881 39.8705C6.76241 39.8583 6.76427 39.8451 6.76425 39.8319V39.5769C6.76425 39.5511 6.7713 39.5263 6.78384 39.5081C6.79638 39.4898 6.81339 39.4796 6.83113 39.4796H6.85186C6.86099 39.4796 6.87002 39.4769 6.87841 39.4717C6.8868 39.4664 6.89436 39.4587 6.90062 39.4491C6.90689 39.4394 6.91173 39.428 6.91484 39.4155C6.91796 39.403 6.91928 39.3897 6.91873 39.3764V39.3473C6.91873 39.3214 6.91169 39.2967 6.89915 39.2784C6.8866 39.2602 6.86959 39.2499 6.85186 39.2499H6.79836C6.78062 39.2499 6.76361 39.2397 6.75107 39.2214C6.73853 39.2032 6.73148 39.1784 6.73148 39.1526V37.6969C6.73148 37.6711 6.72444 37.6464 6.7119 37.6281C6.69935 37.6099 6.68234 37.5996 6.66461 37.5996L5.55984 37.6054C5.55067 37.6045 5.54147 37.6063 5.53281 37.6108C5.52414 37.6153 5.51621 37.6223 5.50949 37.6314C5.50278 37.6406 5.49743 37.6516 5.49378 37.6639C5.49013 37.6761 5.48826 37.6894 5.48828 37.7028Z" fill="#E0E0E0"/>
<path d="M5.58186 40.0396C5.58186 40.0532 4.71249 40.0639 3.64249 40.0639C2.5725 40.0639 1.70312 40.0532 1.70312 40.0396C1.70312 40.026 2.5725 40.0143 3.64249 40.0143C4.71249 40.0143 5.58186 40.026 5.58186 40.0396Z" fill="#E0E0E0"/>
<path d="M5.58186 39.8111C5.58186 39.8257 4.71249 39.8364 3.64249 39.8364C2.5725 39.8364 1.70312 39.8257 1.70312 39.8111C1.70312 39.7965 2.5725 39.7867 3.64249 39.7867C4.71249 39.7867 5.58186 39.7974 5.58186 39.8111Z" fill="#E0E0E0"/>
<path d="M5.82795 39.2071C5.82795 39.2207 4.95858 39.2314 3.88859 39.2314C2.81859 39.2314 1.94922 39.2207 1.94922 39.2071C1.94922 39.1934 2.81859 39.1818 3.88859 39.1818C4.95858 39.1818 5.82795 39.1895 5.82795 39.2071Z" fill="#E0E0E0"/>
<path d="M5.85139 40.866C5.85139 40.8806 4.98202 40.8913 3.91202 40.8913C2.84203 40.8913 1.97266 40.8806 1.97266 40.866C1.97266 40.8514 2.84203 40.8417 3.91202 40.8417C4.98202 40.8417 5.85139 40.8524 5.85139 40.866Z" fill="#E0E0E0"/>
<path d="M1.551 41.5078V43.5396C1.551 43.5654 1.54395 43.5901 1.53141 43.6084C1.51887 43.6266 1.50186 43.6369 1.48412 43.6369H1.36375C1.34601 43.6369 1.329 43.6471 1.31646 43.6654C1.30392 43.6836 1.29688 43.7084 1.29688 43.7342V43.7809C1.29688 43.8067 1.30392 43.8315 1.31646 43.8497C1.329 43.868 1.34601 43.8782 1.36375 43.8782H1.48145C1.49919 43.8782 1.5162 43.8885 1.52874 43.9067C1.54128 43.925 1.54832 43.9497 1.54832 43.9755V45.2697C1.54832 45.2955 1.55537 45.3203 1.56791 45.3385C1.58045 45.3568 1.59746 45.367 1.6152 45.367H6.26901C6.28675 45.367 6.30376 45.3568 6.3163 45.3385C6.32884 45.3203 6.33589 45.2955 6.33589 45.2697V44.1195C6.33589 44.0937 6.32884 44.069 6.3163 44.0507C6.30376 44.0325 6.28675 44.0222 6.26901 44.0222H6.053C6.03527 44.0222 6.01826 44.012 6.00572 43.9937C5.99318 43.9755 5.98613 43.9507 5.98613 43.9249V43.8276C5.98613 43.8018 5.99318 43.777 6.00572 43.7588C6.01826 43.7405 6.03527 43.7303 6.053 43.7303H6.26901C6.28675 43.7303 6.30376 43.72 6.3163 43.7018C6.32884 43.6835 6.33589 43.6588 6.33589 43.633V43.3907C6.33589 43.3649 6.34293 43.3401 6.35547 43.3219C6.36801 43.3036 6.38502 43.2934 6.40276 43.2934H6.42148C6.43922 43.2934 6.45623 43.2831 6.46877 43.2649C6.48131 43.2466 6.48836 43.2219 6.48836 43.1961C6.48836 43.1703 6.48131 43.1455 6.46877 43.1273C6.45623 43.109 6.43922 43.0988 6.42148 43.0988H6.37334C6.3556 43.0988 6.33859 43.0885 6.32605 43.0703C6.31351 43.052 6.30646 43.0273 6.30646 43.0015V41.5078C6.30646 41.482 6.29942 41.4572 6.28687 41.439C6.27433 41.4207 6.25732 41.4105 6.23959 41.4105H1.62055C1.61154 41.41 1.60256 41.4121 1.59413 41.4167C1.58571 41.4214 1.57802 41.4285 1.57152 41.4376C1.56503 41.4467 1.55986 41.4576 1.55633 41.4696C1.55281 41.4817 1.55099 41.4947 1.551 41.5078Z" fill="#F5F5F5"/>
<path d="M5.07031 41.5135V45.2531C5.07031 45.2789 5.07736 45.3036 5.0899 45.3219C5.10244 45.3401 5.11945 45.3504 5.13719 45.3504H6.27406C6.29179 45.3504 6.3088 45.3401 6.32135 45.3219C6.33389 45.3036 6.34093 45.2789 6.34093 45.2531V44.0941C6.34093 44.0683 6.33389 44.0436 6.32135 44.0253C6.3088 44.0071 6.29179 43.9968 6.27406 43.9968H6.05805C6.04032 43.9968 6.02331 43.9866 6.01076 43.9683C5.99822 43.9501 5.99118 43.9253 5.99118 43.8995V43.8324C5.99116 43.8191 5.99301 43.806 5.99662 43.7938C6.00023 43.7816 6.00552 43.7706 6.01216 43.7614C6.0188 43.7523 6.02666 43.7453 6.03524 43.7407C6.04382 43.7362 6.05295 43.7343 6.06206 43.7351L6.2754 43.7409C6.28451 43.7417 6.29364 43.7398 6.30222 43.7353C6.3108 43.7307 6.31866 43.7237 6.3253 43.7146C6.33194 43.7055 6.33723 43.6945 6.34084 43.6823C6.34445 43.67 6.3463 43.6569 6.34628 43.6436V43.3916C6.34628 43.3658 6.35333 43.341 6.36587 43.3228C6.37841 43.3045 6.39542 43.2943 6.41316 43.2943H6.43322C6.44235 43.2943 6.45139 43.2916 6.45977 43.2864C6.46816 43.2811 6.47572 43.2734 6.48198 43.2637C6.48825 43.2541 6.49309 43.2427 6.4962 43.2302C6.49932 43.2177 6.50064 43.2044 6.50009 43.1911V43.161C6.50009 43.1352 6.49305 43.1104 6.48051 43.0922C6.46797 43.0739 6.45096 43.0637 6.43322 43.0637H6.37972C6.36198 43.0637 6.34497 43.0534 6.33243 43.0352C6.31989 43.0169 6.31284 42.9922 6.31284 42.9664V41.5077C6.31284 41.4819 6.3058 41.4571 6.29326 41.4389C6.28072 41.4207 6.26371 41.4104 6.24597 41.4104L5.1412 41.4162C5.13209 41.4154 5.12296 41.4174 5.11437 41.4219C5.10579 41.4264 5.09794 41.4335 5.0913 41.4426C5.08466 41.4517 5.07937 41.4627 5.07576 41.4749C5.07215 41.4871 5.0703 41.5003 5.07031 41.5135Z" fill="#E0E0E0"/>
<path d="M5.15998 43.8495C5.15998 43.8631 4.29061 43.8748 3.22062 43.8748C2.15062 43.8748 1.28125 43.8631 1.28125 43.8495C1.28125 43.8359 2.15062 43.8252 3.22062 43.8252C4.29061 43.8252 5.15998 43.8359 5.15998 43.8495Z" fill="#E0E0E0"/>
<path d="M5.15998 43.6271C5.15998 43.6407 4.29061 43.6524 3.22062 43.6524C2.15062 43.6524 1.28125 43.6407 1.28125 43.6271C1.28125 43.6135 2.15062 43.6028 3.22062 43.6028C4.29061 43.6028 5.15998 43.6135 5.15998 43.6271Z" fill="#E0E0E0"/>
<path d="M5.40998 43.0118C5.40998 43.0254 4.54061 43.0371 3.47062 43.0371C2.40062 43.0371 1.53125 43.0254 1.53125 43.0118C1.53125 42.9981 2.40062 42.9874 3.47062 42.9874C4.54061 42.9874 5.40998 43.001 5.40998 43.0118Z" fill="#E0E0E0"/>
<path d="M5.43342 44.6739C5.43342 44.6875 4.56405 44.6992 3.49405 44.6992C2.42406 44.6992 1.55469 44.6875 1.55469 44.6739C1.55469 44.6603 2.42941 44.6525 3.4994 44.6525C4.5694 44.6525 5.43342 44.6603 5.43342 44.6739Z" fill="#E0E0E0"/>
<path d="M2.03537 22.3347V24.3665C2.03537 24.3923 2.02833 24.417 2.01579 24.4353C2.00325 24.4535 1.98624 24.4638 1.9685 24.4638H1.84812C1.83039 24.4638 1.81338 24.474 1.80084 24.4923C1.7883 24.5105 1.78125 24.5353 1.78125 24.5611V24.6107C1.78125 24.6365 1.7883 24.6613 1.80084 24.6795C1.81338 24.6978 1.83039 24.708 1.84812 24.708H1.96582C1.98356 24.708 2.00057 24.7183 2.01311 24.7365C2.02565 24.7548 2.0327 24.7795 2.0327 24.8053V26.0995C2.0327 26.1253 2.03974 26.1501 2.05229 26.1683C2.06483 26.1866 2.08184 26.1968 2.09957 26.1968H6.75339C6.77112 26.1968 6.78813 26.1866 6.80067 26.1683C6.81321 26.1501 6.82026 26.1253 6.82026 26.0995V24.9464C6.82026 24.9206 6.81321 24.8959 6.80067 24.8776C6.78813 24.8594 6.77112 24.8491 6.75339 24.8491H6.53738C6.51964 24.8491 6.50263 24.8389 6.49009 24.8206C6.47755 24.8024 6.47051 24.7776 6.47051 24.7518V24.6545C6.47051 24.6287 6.47755 24.604 6.49009 24.5857C6.50263 24.5675 6.51964 24.5572 6.53738 24.5572H6.75339C6.77112 24.5572 6.78813 24.5469 6.80067 24.5287C6.81321 24.5105 6.82026 24.4857 6.82026 24.4599V24.2176C6.82026 24.1918 6.82731 24.167 6.83985 24.1488C6.85239 24.1305 6.8694 24.1203 6.88714 24.1203H6.90586C6.9236 24.1203 6.94061 24.11 6.95315 24.0918C6.96569 24.0735 6.97273 24.0488 6.97273 24.023C6.97273 23.9972 6.96569 23.9724 6.95315 23.9542C6.94061 23.9359 6.9236 23.9257 6.90586 23.9257H6.85704C6.83931 23.9257 6.82229 23.9154 6.80975 23.8972C6.79721 23.8789 6.79017 23.8542 6.79017 23.8284V22.3347C6.79017 22.3089 6.78312 22.2841 6.77058 22.2659C6.75804 22.2476 6.74103 22.2374 6.72329 22.2374H2.10492C2.09592 22.2369 2.08693 22.239 2.07851 22.2436C2.07008 22.2483 2.06239 22.2554 2.0559 22.2645C2.0494 22.2736 2.04423 22.2845 2.04071 22.2965C2.03718 22.3086 2.03537 22.3216 2.03537 22.3347Z" fill="#F5F5F5"/>
<path d="M5.55469 22.3405V26.08C5.55469 26.1058 5.56173 26.1305 5.57427 26.1488C5.58682 26.167 5.60383 26.1773 5.62156 26.1773H6.75843C6.77617 26.1773 6.79318 26.167 6.80572 26.1488C6.81826 26.1305 6.82531 26.1058 6.82531 26.08V24.9211C6.82531 24.8952 6.81826 24.8705 6.80572 24.8522C6.79318 24.834 6.77617 24.8237 6.75843 24.8237H6.54243C6.52469 24.8237 6.50768 24.8135 6.49514 24.7952C6.4826 24.777 6.47555 24.7522 6.47555 24.7264V24.6583C6.47554 24.645 6.47739 24.6319 6.481 24.6197C6.48461 24.6075 6.4899 24.5965 6.49654 24.5874C6.50318 24.5783 6.51103 24.5712 6.51961 24.5667C6.5282 24.5621 6.53733 24.5602 6.54644 24.561L6.75977 24.5669C6.76888 24.5677 6.77801 24.5657 6.7866 24.5612C6.79518 24.5567 6.80303 24.5496 6.80967 24.5405C6.81631 24.5314 6.8216 24.5204 6.82521 24.5082C6.82882 24.496 6.83067 24.4828 6.83066 24.4695V24.2292C6.83066 24.2034 6.8377 24.1786 6.85024 24.1604C6.86279 24.1421 6.8798 24.1319 6.89753 24.1319H6.91759C6.92673 24.1319 6.93576 24.1292 6.94415 24.124C6.95254 24.1187 6.96009 24.111 6.96636 24.1014C6.97262 24.0917 6.97746 24.0803 6.98058 24.0678C6.98369 24.0553 6.98502 24.042 6.98447 24.0287V23.9986C6.98447 23.9728 6.97742 23.948 6.96488 23.9298C6.95234 23.9115 6.93533 23.9013 6.91759 23.9013H6.86476C6.84703 23.9013 6.83002 23.891 6.81748 23.8728C6.80493 23.8545 6.79789 23.8298 6.79789 23.804V22.3346C6.79789 22.3088 6.79084 22.2841 6.7783 22.2658C6.76576 22.2476 6.74875 22.2373 6.73101 22.2373L5.62691 22.2431C5.61769 22.2421 5.60842 22.2438 5.59967 22.2482C5.59093 22.2526 5.58292 22.2596 5.57613 22.2687C5.56934 22.2779 5.56393 22.289 5.56024 22.3013C5.55655 22.3137 5.55466 22.327 5.55469 22.3405Z" fill="#E0E0E0"/>
<path d="M5.64436 24.6764C5.64436 24.691 4.77499 24.7017 3.70499 24.7017C2.635 24.7017 1.76562 24.691 1.76562 24.6764C1.76562 24.6618 2.635 24.6521 3.70499 24.6521C4.77499 24.6521 5.64436 24.6628 5.64436 24.6764Z" fill="#E0E0E0"/>
<path d="M5.64436 24.4489C5.64436 24.4625 4.77499 24.4742 3.70499 24.4742C2.635 24.4742 1.76562 24.4625 1.76562 24.4489C1.76562 24.4353 2.635 24.4246 3.70499 24.4246C4.77499 24.4246 5.64436 24.4353 5.64436 24.4489Z" fill="#E0E0E0"/>
<path d="M5.89436 23.8387C5.89436 23.8533 5.02499 23.864 3.95499 23.864C2.885 23.864 2.01562 23.8533 2.01562 23.8387C2.01562 23.8241 2.885 23.8143 3.95499 23.8143C5.02499 23.8143 5.89436 23.825 5.89436 23.8387Z" fill="#E0E0E0"/>
<path d="M5.9178 25.5037C5.9178 25.5173 5.04843 25.529 3.97843 25.529C2.90843 25.529 2.03906 25.5173 2.03906 25.5037C2.03906 25.4901 2.90843 25.4794 3.97843 25.4794C5.04843 25.4794 5.9178 25.4901 5.9178 25.5037Z" fill="#E0E0E0"/>
<path d="M2.39408 26.1972V28.23C2.39408 28.2558 2.38703 28.2806 2.37449 28.2988C2.36195 28.3171 2.34494 28.3273 2.32721 28.3273H2.2075C2.18976 28.3273 2.17275 28.3376 2.16021 28.3558C2.14767 28.3741 2.14062 28.3988 2.14062 28.4246V28.4655C2.14062 28.4913 2.14767 28.516 2.16021 28.5343C2.17275 28.5525 2.18976 28.5628 2.2075 28.5628H2.3252C2.34294 28.5628 2.35995 28.573 2.37249 28.5913C2.38503 28.6095 2.39207 28.6343 2.39207 28.6601V29.9533C2.39207 29.9791 2.39912 30.0039 2.41166 30.0221C2.4242 30.0404 2.44121 30.0506 2.45895 30.0506H7.11343C7.13117 30.0506 7.14818 30.0404 7.16072 30.0221C7.17326 30.0039 7.1803 29.9791 7.1803 29.9533V28.809C7.1803 28.7832 7.17326 28.7584 7.16072 28.7402C7.14818 28.7219 7.13117 28.7117 7.11343 28.7117H6.89675C6.87902 28.7117 6.86201 28.7014 6.84947 28.6832C6.83693 28.6649 6.82988 28.6402 6.82988 28.6144V28.5171C6.82988 28.4913 6.83693 28.4665 6.84947 28.4483C6.86201 28.43 6.87902 28.4198 6.89675 28.4198H7.11343C7.13117 28.4198 7.14818 28.4095 7.16072 28.3913C7.17326 28.373 7.1803 28.3483 7.1803 28.3224V28.0792C7.1803 28.0534 7.18735 28.0286 7.19989 28.0104C7.21243 27.9921 7.22944 27.9819 7.24718 27.9819H7.26657C7.28431 27.9819 7.30132 27.9716 7.31386 27.9534C7.3264 27.9351 7.33345 27.9104 7.33345 27.8846C7.33345 27.8588 7.3264 27.834 7.31386 27.8158C7.30132 27.7975 7.28431 27.7873 7.26657 27.7873H7.21775C7.20002 27.7873 7.18301 27.777 7.17047 27.7588C7.15792 27.7405 7.15088 27.7158 7.15088 27.6899V26.1972C7.15088 26.1714 7.14383 26.1467 7.13129 26.1284C7.11875 26.1102 7.10174 26.0999 7.084 26.0999H2.46363C2.45463 26.0994 2.44564 26.1015 2.43722 26.1062C2.42879 26.1108 2.4211 26.1179 2.4146 26.127C2.40811 26.1361 2.40294 26.147 2.39941 26.1591C2.39589 26.1711 2.39407 26.1841 2.39408 26.1972Z" fill="#F5F5F5"/>
<path d="M5.91797 26.203V29.9425C5.91797 29.9684 5.92501 29.9931 5.93756 30.0113C5.9501 30.0296 5.96711 30.0399 5.98484 30.0399H7.12171C7.13945 30.0399 7.15646 30.0296 7.169 30.0113C7.18154 29.9931 7.18859 29.9684 7.18859 29.9425V28.7836C7.18859 28.7578 7.18154 28.733 7.169 28.7148C7.15646 28.6965 7.13945 28.6863 7.12171 28.6863H6.90504C6.8873 28.6863 6.87029 28.676 6.85775 28.6578C6.84521 28.6395 6.83817 28.6148 6.83817 28.589V28.5209C6.83815 28.5077 6.83999 28.4946 6.84356 28.4825C6.84712 28.4703 6.85235 28.4594 6.85892 28.4503C6.86549 28.4412 6.87326 28.4341 6.88176 28.4295C6.89027 28.4249 6.89932 28.4229 6.90838 28.4236L7.12238 28.4294C7.13144 28.4301 7.1405 28.428 7.149 28.4234C7.15751 28.4188 7.16528 28.4118 7.17185 28.4027C7.17842 28.3936 7.18364 28.3826 7.18721 28.3705C7.19078 28.3584 7.19261 28.3453 7.1926 28.3321V28.0917C7.1926 28.0659 7.19965 28.0412 7.21219 28.0229C7.22473 28.0047 7.24174 27.9944 7.25948 27.9944H7.28021C7.28934 27.9945 7.29837 27.9918 7.30676 27.9865C7.31515 27.9813 7.32271 27.9736 7.32897 27.9639C7.33524 27.9542 7.34008 27.9428 7.34319 27.9303C7.34631 27.9178 7.34763 27.9046 7.34708 27.8913V27.8621C7.34708 27.8363 7.34004 27.8115 7.32749 27.7933C7.31495 27.775 7.29794 27.7648 7.28021 27.7648H7.22738C7.20964 27.7648 7.19263 27.7545 7.18009 27.7363C7.16755 27.718 7.1605 27.6933 7.1605 27.6675V26.1972C7.1605 26.1714 7.15346 26.1466 7.14091 26.1284C7.12837 26.1101 7.11136 26.0999 7.09363 26.0999L5.98952 26.1057C5.98036 26.1048 5.97116 26.1066 5.96249 26.111C5.95383 26.1155 5.9459 26.1225 5.93918 26.1317C5.93247 26.1408 5.92712 26.1518 5.92347 26.1641C5.91982 26.1764 5.91795 26.1896 5.91797 26.203Z" fill="#E0E0E0"/>
<path d="M6.00764 28.5398C6.00764 28.5535 5.13827 28.5642 4.06827 28.5642C2.99828 28.5642 2.12891 28.5535 2.12891 28.5398C2.12891 28.5262 2.99828 28.5145 4.06827 28.5145C5.13827 28.5145 6.00764 28.5262 6.00764 28.5398Z" fill="#E0E0E0"/>
<path d="M6.00764 28.3114C6.00764 28.3251 5.13827 28.3367 4.06827 28.3367C2.99828 28.3367 2.12891 28.3251 2.12891 28.3114C2.12891 28.2978 2.99828 28.2871 4.06827 28.2871C5.13827 28.2871 6.00764 28.2978 6.00764 28.3114Z" fill="#E0E0E0"/>
<path d="M6.25373 27.7022C6.25373 27.7158 5.38436 27.7265 4.31437 27.7265C3.24437 27.7265 2.375 27.7158 2.375 27.7022C2.375 27.6886 3.24437 27.6769 4.31437 27.6769C5.38436 27.6769 6.25373 27.6886 6.25373 27.7022Z" fill="#E0E0E0"/>
<path d="M6.28108 29.3662C6.28108 29.3799 5.41171 29.3915 4.34171 29.3915C3.27171 29.3915 2.40234 29.3799 2.40234 29.3662C2.40234 29.3526 3.27171 29.3419 4.34171 29.3419C5.41171 29.3419 6.28108 29.3526 6.28108 29.3662Z" fill="#E0E0E0"/>
<path d="M1.97611 30.008V32.0408C1.97611 32.0666 1.96907 32.0913 1.95652 32.1096C1.94398 32.1278 1.92697 32.1381 1.90924 32.1381H1.78953C1.77179 32.1381 1.75479 32.1484 1.74224 32.1666C1.7297 32.1848 1.72266 32.2096 1.72266 32.2354V32.2753C1.72266 32.3011 1.7297 32.3259 1.74224 32.3441C1.75479 32.3624 1.77179 32.3726 1.78953 32.3726H1.90656C1.9243 32.3726 1.94131 32.3829 1.95385 32.4011C1.96639 32.4194 1.97344 32.4441 1.97344 32.4699V33.7787C1.97344 33.8045 1.98048 33.8293 1.99302 33.8475C2.00557 33.8658 2.02257 33.876 2.04031 33.876H6.69412C6.71186 33.876 6.72887 33.8658 6.74141 33.8475C6.75395 33.8293 6.761 33.8045 6.761 33.7787V32.6207C6.761 32.5949 6.75395 32.5702 6.74141 32.5519C6.72887 32.5337 6.71186 32.5234 6.69412 32.5234H6.47812C6.46038 32.5234 6.44337 32.5132 6.43083 32.4949C6.41829 32.4767 6.41124 32.4519 6.41124 32.4261V32.3288C6.41124 32.303 6.41829 32.2783 6.43083 32.26C6.44337 32.2418 6.46038 32.2315 6.47812 32.2315H6.69412C6.71186 32.2315 6.72887 32.2213 6.74141 32.203C6.75395 32.1848 6.761 32.16 6.761 32.1342V31.8919C6.761 31.8661 6.76804 31.8414 6.78058 31.8231C6.79313 31.8049 6.81014 31.7946 6.82787 31.7946H6.8466C6.86433 31.7946 6.88134 31.7844 6.89388 31.7661C6.90643 31.7479 6.91347 31.7231 6.91347 31.6973C6.91347 31.6715 6.90643 31.6467 6.89388 31.6285C6.88134 31.6102 6.86433 31.6 6.8466 31.6H6.79845C6.78071 31.6 6.7637 31.5897 6.75116 31.5715C6.73862 31.5532 6.73157 31.5285 6.73157 31.5027V30.008C6.73157 29.9822 6.72453 29.9575 6.71199 29.9392C6.69944 29.921 6.68243 29.9107 6.6647 29.9107H2.04566C2.03666 29.9102 2.02767 29.9123 2.01925 29.917C2.01082 29.9216 2.00313 29.9287 1.99663 29.9378C1.99014 29.9469 1.98497 29.9578 1.98145 29.9699C1.97792 29.9819 1.9761 29.9949 1.97611 30.008Z" fill="#F5F5F5"/>
<path d="M5.49609 30.0138V33.7582C5.49609 33.784 5.50314 33.8088 5.51568 33.827C5.52822 33.8453 5.54523 33.8555 5.56297 33.8555H6.69984C6.71758 33.8555 6.73459 33.8453 6.74713 33.827C6.75967 33.8088 6.76671 33.784 6.76671 33.7582V32.5905C6.76671 32.5647 6.75967 32.5399 6.74713 32.5217C6.73459 32.5034 6.71758 32.4932 6.69984 32.4932H6.48383C6.4661 32.4932 6.44909 32.4829 6.43655 32.4647C6.424 32.4464 6.41696 32.4217 6.41696 32.3959V32.3287C6.41694 32.3155 6.4188 32.3023 6.4224 32.2901C6.42601 32.2779 6.4313 32.2669 6.43794 32.2578C6.44458 32.2487 6.45244 32.2416 6.46102 32.2371C6.4696 32.2326 6.47873 32.2306 6.48785 32.2314L6.70185 32.2373C6.7109 32.2379 6.71996 32.2359 6.72847 32.2313C6.73697 32.2267 6.74474 32.2197 6.75131 32.2106C6.75788 32.2015 6.76311 32.1905 6.76667 32.1784C6.77024 32.1662 6.77207 32.1532 6.77206 32.14V31.8996C6.77206 31.8738 6.77911 31.8491 6.79165 31.8308C6.80419 31.8126 6.8212 31.8023 6.83894 31.8023H6.85967C6.8688 31.8023 6.87784 31.7996 6.88622 31.7944C6.89461 31.7891 6.90217 31.7814 6.90843 31.7718C6.9147 31.7621 6.91954 31.7507 6.92265 31.7382C6.92577 31.7257 6.92709 31.7124 6.92654 31.6992V31.669C6.92654 31.6432 6.9195 31.6184 6.90696 31.6002C6.89442 31.5819 6.87741 31.5717 6.85967 31.5717H6.80617C6.78843 31.5717 6.77142 31.5614 6.75888 31.5432C6.74634 31.5249 6.7393 31.5002 6.7393 31.4744V30.008C6.7393 29.9821 6.73225 29.9574 6.71971 29.9391C6.70717 29.9209 6.69016 29.9106 6.67242 29.9106L5.56765 29.9165C5.55848 29.9155 5.54928 29.9174 5.54062 29.9218C5.53196 29.9263 5.52402 29.9333 5.51731 29.9425C5.51059 29.9516 5.50524 29.9626 5.50159 29.9749C5.49794 29.9872 5.49607 30.0004 5.49609 30.0138Z" fill="#E0E0E0"/>
<path d="M5.58577 32.3498C5.58577 32.3634 4.71639 32.3751 3.6464 32.3751C2.5764 32.3751 1.70703 32.3634 1.70703 32.3498C1.70703 32.3361 2.5764 32.3254 3.6464 32.3254C4.71639 32.3254 5.58577 32.3361 5.58577 32.3498Z" fill="#E0E0E0"/>
<path d="M5.58577 32.1222C5.58577 32.1359 4.71639 32.1475 3.6464 32.1475C2.5764 32.1475 1.70703 32.1359 1.70703 32.1222C1.70703 32.1086 2.5764 32.0979 3.6464 32.0979C4.71639 32.0979 5.58577 32.1086 5.58577 32.1222Z" fill="#E0E0E0"/>
<path d="M5.83967 31.5121C5.83967 31.5257 4.9703 31.5374 3.9003 31.5374C2.83031 31.5374 1.96094 31.5257 1.96094 31.5121C1.96094 31.4985 2.83031 31.4878 3.9003 31.4878C4.9703 31.4878 5.83967 31.4985 5.83967 31.5121Z" fill="#E0E0E0"/>
<path d="M5.8592 33.1719C5.8592 33.1855 4.98983 33.1962 3.91984 33.1962C2.84984 33.1962 1.98047 33.1855 1.98047 33.1719C1.98047 33.1583 2.84984 33.1476 3.91984 33.1476C4.98983 33.1476 5.8592 33.1622 5.8592 33.1719Z" fill="#E0E0E0"/>
<path d="M24.9608 4.78088H23.8086V10.017H24.9608V4.78088Z" fill="#F5F5F5"/>
<path d="M26.6796 5.98047H25.5273V10.0207H26.6796V5.98047Z" fill="#F5F5F5"/>
<path d="M28.2733 7.61963H27.1211V10.0183H28.2733V7.61963Z" fill="#F5F5F5"/>
<path d="M45.8555 45.4521C45.8555 45.4667 35.7815 45.4774 23.3568 45.4774C10.9322 45.4774 0.855469 45.4667 0.855469 45.4521C0.855469 45.4375 10.9275 45.4268 23.3568 45.4268C35.7861 45.4268 45.8555 45.4384 45.8555 45.4521Z" fill="#263238"/>
<path d="M38.2814 20.8886C38.2759 20.1773 38.4154 19.4796 38.6821 18.8835C38.9489 18.2875 39.331 17.8197 39.7803 17.5393C40.2295 17.2589 40.7258 17.1785 41.2065 17.3081C41.6871 17.4377 42.1306 17.7716 42.481 18.2676C42.8314 18.7636 43.073 19.3995 43.1752 20.0951C43.2775 20.7907 43.2359 21.5147 43.0556 22.1759C42.8753 22.8371 42.5645 23.4058 42.1623 23.8101C41.7602 24.2145 41.2847 24.4365 40.7959 24.4481C40.1383 24.4598 39.5044 24.0917 39.0331 23.4245C38.5618 22.7572 38.2914 21.8453 38.2814 20.8886ZM41.9394 20.802C41.9345 20.4618 41.8605 20.1313 41.7266 19.8523C41.5927 19.5733 41.405 19.3582 41.1872 19.2342C40.9695 19.1103 40.7313 19.0829 40.5028 19.1557C40.2744 19.2285 40.0659 19.3981 39.9036 19.6432C39.7414 19.8882 39.6326 20.1978 39.5911 20.5326C39.5496 20.8675 39.5773 21.2128 39.6705 21.5249C39.7637 21.837 39.9184 22.1019 40.115 22.2861C40.3116 22.4704 40.5413 22.5658 40.7752 22.5603C41.0897 22.5514 41.389 22.3612 41.6072 22.0316C41.8255 21.7019 41.945 21.2597 41.9394 20.802Z" fill="#455A64"/>
<path d="M38.2816 20.8839C38.271 19.9276 38.5213 19.0042 38.9777 18.3159C39.4341 17.6276 40.0593 17.2305 40.7165 17.2115L40.7372 19.0993C40.4219 19.1067 40.1214 19.296 39.902 19.6257C39.6826 19.9553 39.5622 20.3983 39.5672 20.8572C39.5723 21.316 39.7024 21.7532 39.929 22.0725C40.1555 22.3917 40.46 22.5669 40.7753 22.5596L40.7961 24.4474C40.138 24.4593 39.5036 24.0908 39.0321 23.4226C38.5607 22.7545 38.2907 21.8414 38.2816 20.8839Z" fill="#9A9A9A"/>
<path d="M40.4961 16.9232C40.8722 16.91 41.2463 17.0061 41.5966 17.206C41.9468 17.4058 42.2662 17.7054 42.5358 18.0871C42.8055 18.4688 43.0201 18.925 43.1671 19.4289C43.3141 19.9328 43.3905 20.4744 43.3918 21.0218L41.8811 21.0578C41.8684 19.9397 41.2825 19.2372 40.5215 19.2586L40.4961 16.9232Z" fill="#263238"/>
<path d="M19.3156 7.33439C19.3338 5.86157 18.528 4.64615 17.5158 4.61967C16.5036 4.59319 15.6683 5.76568 15.6501 7.2385C15.6319 8.71132 16.4377 9.92674 17.4499 9.95322C18.4621 9.9797 19.2974 8.80721 19.3156 7.33439Z" fill="#9A9A9A"/>
<g opacity="0.1">
<path d="M17.8289 4.66874C17.5926 4.60266 17.3496 4.60499 17.1138 4.67559C16.878 4.7462 16.6542 4.8837 16.4549 5.08025C16.2557 5.27679 16.085 5.52852 15.9527 5.82106C15.8203 6.1136 15.7289 6.44121 15.6836 6.78519C15.6836 6.78519 16.9375 7.22015 17.3428 6.5643C17.748 5.90844 17.8289 4.66874 17.8289 4.66874Z" fill="white"/>
</g>
<path d="M18.831 7.62186C18.7787 8.01533 18.6475 8.37744 18.4538 8.66241C18.2602 8.94738 18.0128 9.14242 17.743 9.22289C17.4732 9.30336 17.1931 9.26565 16.938 9.11451C16.6829 8.96338 16.4643 8.7056 16.3099 8.37377C16.1555 8.04194 16.0721 7.65095 16.0703 7.2502C16.0686 6.84945 16.1485 6.45693 16.3 6.12226C16.4515 5.78759 16.6678 5.52577 16.9215 5.36991C17.1753 5.21404 17.4551 5.17112 17.7256 5.24657C17.9054 5.29673 18.0767 5.39799 18.2296 5.54456C18.3825 5.69112 18.5141 5.88012 18.6167 6.10073C18.7194 6.32134 18.7912 6.56924 18.8279 6.83025C18.8647 7.09126 18.8658 7.36026 18.831 7.62186Z" fill="#9A9A9A"/>
<g opacity="0.2">
<path d="M18.8271 7.62784C18.7748 8.02132 18.6436 8.38342 18.4499 8.66839C18.2563 8.95336 18.0089 9.1484 17.7391 9.22887C17.4693 9.30934 17.1892 9.27163 16.9341 9.12049C16.679 8.96936 16.4604 8.71159 16.306 8.37975C16.1516 8.04792 16.0682 7.65693 16.0664 7.25618C16.0647 6.85543 16.1446 6.46292 16.2961 6.12824C16.4476 5.79357 16.6639 5.53175 16.9176 5.37589C17.1714 5.22003 17.4512 5.17711 17.7217 5.25255C17.9015 5.30272 18.0728 5.40397 18.2257 5.55054C18.3786 5.6971 18.5102 5.8861 18.6128 6.10671C18.7155 6.32732 18.7873 6.57522 18.824 6.83624C18.8608 7.09725 18.8618 7.36624 18.8271 7.62784Z" fill="black"/>
</g>
<path d="M18.8582 7.71664C18.807 8.10529 18.6778 8.46313 18.4868 8.74491C18.2959 9.02668 18.0518 9.21974 17.7855 9.29967C17.5191 9.37959 17.2425 9.34279 16.9905 9.19392C16.7385 9.04505 16.5225 8.7908 16.3699 8.46332C16.2172 8.13583 16.1347 7.74983 16.1328 7.35413C16.131 6.95843 16.2098 6.5708 16.3593 6.24027C16.5088 5.90973 16.7223 5.65114 16.9729 5.4972C17.2234 5.34326 17.4997 5.30088 17.7668 5.37542C18.1248 5.47535 18.441 5.77814 18.6456 6.21719C18.8503 6.65623 18.9267 7.19559 18.8582 7.71664Z" fill="#9A9A9A"/>
<g opacity="0.2">
<path d="M18.8542 7.71664C18.8031 8.10529 18.6739 8.46313 18.4829 8.74491C18.292 9.02668 18.0479 9.21974 17.7816 9.29967C17.5152 9.37959 17.2386 9.34279 16.9866 9.19392C16.7346 9.04505 16.5186 8.7908 16.366 8.46332C16.2133 8.13583 16.1308 7.74983 16.1289 7.35413C16.1271 6.95843 16.2059 6.5708 16.3554 6.24027C16.5049 5.90973 16.7184 5.65114 16.969 5.4972C17.2195 5.34326 17.4958 5.30088 17.7628 5.37542C18.1209 5.47535 18.4371 5.77814 18.6417 6.21719C18.8464 6.65623 18.9228 7.19559 18.8542 7.71664Z" fill="white"/>
</g>
<path d="M17.5815 7.18356L17.6483 6.68047C17.7099 6.70884 17.7684 6.74944 17.8222 6.80114C17.8495 6.83207 17.8748 6.86659 17.8978 6.90428L17.9045 6.88969L17.9821 6.72329L17.9994 6.68534L17.9506 6.57441L17.9185 6.58511C17.8485 6.50429 17.768 6.44473 17.6818 6.40996L17.7186 6.13361L17.6684 6.04797L17.659 6.11706L17.5781 6.09468L17.542 6.37687C17.2705 6.3399 17.1147 6.52576 17.0812 6.77973C17.0351 7.12615 17.227 7.27308 17.4083 7.39277L17.3414 7.89098C17.2191 7.84174 17.1089 7.74285 17.0237 7.60587L16.9141 7.83649C17.0193 7.99915 17.1559 8.11175 17.3059 8.15955L17.2785 8.36877L17.2117 8.35125L17.2692 8.43591L17.4096 8.47581L17.4464 8.19653C17.7206 8.23156 17.8777 8.04862 17.9145 7.79465C17.958 7.44823 17.7627 7.30325 17.5815 7.18356ZM17.4477 7.09209C17.3541 7.02203 17.2879 6.94613 17.3039 6.82644C17.32 6.70675 17.3815 6.64155 17.5046 6.64836L17.4477 7.09209ZM17.4845 7.92504L17.542 7.48424C17.639 7.55527 17.7065 7.63409 17.6905 7.75573C17.6758 7.86277 17.6122 7.93283 17.4838 7.92504H17.4845Z" fill="#9A9A9A"/>
<g opacity="0.3">
<path d="M17.5815 7.1849L17.6483 6.68182C17.7099 6.71018 17.7684 6.75078 17.8222 6.80248C17.8495 6.83341 17.8748 6.86794 17.8978 6.90563L17.9045 6.89103L17.9821 6.72463L17.9994 6.68668L17.9506 6.57575L17.9185 6.58646C17.8485 6.50563 17.768 6.44607 17.6818 6.4113L17.7186 6.13495L17.6684 6.04932L17.659 6.1184L17.5781 6.09602L17.542 6.37822C17.2705 6.34124 17.1147 6.5271 17.0812 6.78107C17.0351 7.12749 17.227 7.27442 17.4083 7.39411L17.3414 7.89233C17.2191 7.84308 17.1089 7.74419 17.0237 7.60722L16.9141 7.83784C17.0193 8.00049 17.1559 8.1131 17.3059 8.1609L17.2785 8.37011L17.2117 8.35259L17.2692 8.43725L17.4096 8.47715L17.4464 8.19787C17.7206 8.2329 17.8777 8.04997 17.9145 7.79599C17.958 7.44958 17.7627 7.30459 17.5815 7.1849ZM17.4477 7.09343C17.3541 7.02337 17.2879 6.94747 17.3039 6.82778C17.32 6.70809 17.3815 6.64289 17.5046 6.64971L17.4477 7.09343ZM17.4845 7.92639L17.542 7.48558C17.639 7.55662 17.7065 7.63543 17.6905 7.75707C17.6758 7.86411 17.6122 7.93417 17.4838 7.92639H17.4845Z" fill="black"/>
</g>
<path d="M17.4002 8.1126L17.3634 8.39187L17.223 8.35295L17.2597 8.07659C17.1095 8.02842 16.9727 7.9155 16.8672 7.75256L16.9775 7.52194C17.0625 7.65921 17.1727 7.75815 17.2952 7.80705L17.3621 7.30883C17.1808 7.18914 16.9889 7.04221 17.0344 6.69579C17.0678 6.44182 17.2236 6.25596 17.4958 6.29294L17.5333 6.01172L17.673 6.05064L17.6369 6.327C17.7586 6.36935 17.8712 6.45494 17.9646 6.5761L17.8596 6.8038C17.7842 6.70776 17.6958 6.63582 17.6001 6.59265L17.5333 7.09573C17.7145 7.21542 17.9098 7.36041 17.8643 7.70682C17.8315 7.96469 17.677 8.14763 17.4002 8.1126ZM17.4002 7.00815L17.459 6.56443C17.3333 6.55762 17.2704 6.63352 17.2584 6.7425C17.2464 6.85149 17.3066 6.93809 17.4002 7.00815ZM17.6429 7.67179C17.659 7.55016 17.5914 7.47134 17.4938 7.4003L17.4356 7.84111C17.5647 7.84889 17.6289 7.77688 17.6429 7.67179Z" fill="#9A9A9A"/>
<path d="M15.787 8.09322C15.787 8.09322 15.787 8.08641 15.7817 8.07084L15.7676 8.00467C15.7599 7.97022 15.7537 7.93513 15.7489 7.89958C15.7405 7.85278 15.7338 7.80535 15.7288 7.75751C15.7255 7.73123 15.7228 7.70301 15.7195 7.67479C15.7161 7.64657 15.7148 7.61544 15.7128 7.5843C15.7068 7.52105 15.7054 7.45391 15.7034 7.38287C15.7016 7.22891 15.7083 7.07498 15.7235 6.9226C15.7401 6.77046 15.7649 6.62046 15.7977 6.47402C15.8144 6.40785 15.8292 6.34362 15.8472 6.28621C15.8559 6.25702 15.8633 6.2288 15.8726 6.20253L15.898 6.12663C15.9134 6.07797 15.9315 6.0371 15.9455 6.00013C15.9596 5.96315 15.9736 5.93201 15.9856 5.90768L16.0117 5.85027C16.0149 5.84337 16.0185 5.83687 16.0224 5.83081C16.02 5.83817 16.0174 5.84532 16.0144 5.85222L15.9897 5.91158C15.979 5.93688 15.9663 5.96801 15.9522 6.00888C15.9382 6.04975 15.9214 6.0877 15.9067 6.13636L15.882 6.21128C15.8733 6.23756 15.8659 6.26675 15.8579 6.29497C15.8405 6.35238 15.8258 6.4166 15.8098 6.48277C15.744 6.77401 15.7123 7.07928 15.7161 7.38579C15.7161 7.45585 15.7161 7.52299 15.7235 7.58041C15.7235 7.61154 15.7268 7.64171 15.7302 7.6709C15.7335 7.70009 15.7355 7.72734 15.7382 7.75361C15.7429 7.80616 15.7502 7.85092 15.7563 7.89471C15.7605 7.93049 15.7661 7.9659 15.773 8.00078C15.7777 8.02802 15.781 8.0504 15.7844 8.06792C15.7859 8.07617 15.7868 8.08466 15.787 8.09322Z" fill="white"/>
<path d="M17.1207 6.93653C17.1066 6.91775 17.0956 6.89443 17.0886 6.86842C17.0702 6.80721 17.0655 6.7391 17.0753 6.6738C17.0856 6.60712 17.1107 6.54726 17.1468 6.50351C17.1605 6.48344 17.1776 6.469 17.1963 6.46167C17.1963 6.46167 17.1783 6.47919 17.1535 6.51324C17.1207 6.55744 17.0975 6.61459 17.0866 6.67769C17.076 6.74236 17.0791 6.81018 17.0953 6.87231C17.1094 6.90929 17.1228 6.93459 17.1207 6.93653Z" fill="white"/>
<path d="M17.5286 6.26311C17.5259 6.23505 17.5275 6.20649 17.5333 6.17942C17.5393 6.13466 17.5466 6.09866 17.5507 6.09963C17.5535 6.12762 17.5521 6.15617 17.5466 6.18331C17.5433 6.22807 17.5326 6.26408 17.5286 6.26311Z" fill="white"/>
<path d="M17.8521 5.23709C17.8371 5.23444 17.8223 5.22955 17.808 5.22249C17.7946 5.21665 17.7772 5.20984 17.7571 5.204C17.7371 5.19816 17.715 5.18941 17.6903 5.18454C17.6655 5.17968 17.6374 5.17092 17.6073 5.16605C17.5772 5.16119 17.5418 5.15438 17.5104 5.15438C17.437 5.149 17.3635 5.15128 17.2903 5.16119C17.2171 5.17232 17.1444 5.19118 17.073 5.21763C17.0402 5.23125 17.0095 5.24293 16.9807 5.25752C16.952 5.27212 16.9259 5.28477 16.9018 5.29839C16.8777 5.31202 16.857 5.32661 16.8383 5.33829C16.822 5.34751 16.8061 5.35823 16.7908 5.3704C16.7778 5.38115 16.7642 5.38995 16.75 5.39667C16.7621 5.38413 16.7748 5.37306 16.7881 5.36359C16.8008 5.35288 16.8162 5.34023 16.8349 5.32758C16.8537 5.31493 16.8737 5.29936 16.8985 5.28574C16.9232 5.27212 16.9479 5.25558 16.9774 5.24195C17.0068 5.22833 17.0369 5.21373 17.0697 5.20011C17.1416 5.17244 17.215 5.15292 17.289 5.14173C17.3628 5.13212 17.437 5.13017 17.511 5.13589C17.5451 5.13589 17.5779 5.14367 17.608 5.15048C17.6381 5.1573 17.6662 5.16411 17.6916 5.17092C17.717 5.17773 17.7391 5.18746 17.7585 5.19427C17.7779 5.20108 17.7953 5.20887 17.8093 5.21568L17.8521 5.23709Z" fill="white"/>
<path d="M17.3763 9.8365H17.3422C17.3114 9.83879 17.2806 9.83879 17.2499 9.8365C17.1485 9.82698 17.0483 9.80087 16.9509 9.75865C16.8534 9.71577 16.7596 9.65667 16.6714 9.58252C16.6373 9.5543 16.6112 9.52998 16.5932 9.51149C16.5838 9.50228 16.5749 9.4922 16.5664 9.48132C16.5772 9.48679 16.5874 9.49467 16.5965 9.50468C16.6146 9.52122 16.642 9.5436 16.6761 9.57085C16.7648 9.64018 16.858 9.69657 16.9543 9.73919C17.0509 9.78113 17.1501 9.80884 17.2505 9.8219C17.2893 9.82774 17.3208 9.82969 17.3422 9.83066C17.3536 9.83057 17.3651 9.83253 17.3763 9.8365Z" fill="white"/>
<path d="M17.9107 21.4604C17.9703 21.7732 17.9648 22.1048 17.8949 22.4131C17.825 22.7214 17.6938 22.9926 17.518 23.1924C17.3422 23.3923 17.1296 23.5118 16.9071 23.5359C16.6846 23.5599 16.4622 23.4874 16.268 23.3276C16.0738 23.1677 15.9165 22.9277 15.8161 22.6378C15.7157 22.3479 15.6765 22.0212 15.7037 21.699C15.7309 21.3768 15.8231 21.0735 15.9687 20.8275C16.1143 20.5815 16.3067 20.4039 16.5217 20.317C16.6645 20.2593 16.8137 20.2432 16.9608 20.2694C17.1079 20.2957 17.25 20.3638 17.379 20.47C17.508 20.5762 17.6213 20.7183 17.7126 20.8882C17.8038 21.0582 17.8711 21.2526 17.9107 21.4604Z" fill="#9A9A9A"/>
<g opacity="0.1">
<path d="M16.5261 20.3184C16.3833 20.3759 16.2497 20.4739 16.1329 20.6067C16.0161 20.7394 15.9184 20.9043 15.8455 21.092C15.7725 21.2797 15.7256 21.4865 15.7076 21.7005C15.6896 21.9146 15.7007 22.1317 15.7403 22.3394C15.7403 22.3394 16.5141 22.0806 16.6097 21.561C16.7053 21.0414 16.5261 20.3184 16.5261 20.3184Z" fill="white"/>
</g>
<path d="M17.6302 21.5499C17.6755 21.7879 17.6713 22.04 17.6181 22.2745C17.5649 22.509 17.4651 22.7152 17.3313 22.8672C17.1976 23.0191 17.0359 23.1099 16.8666 23.1282C16.6974 23.1464 16.5283 23.0912 16.3806 22.9695C16.2329 22.8479 16.1134 22.6652 16.037 22.4447C15.9607 22.2242 15.931 21.9757 15.9517 21.7306C15.9725 21.4855 16.0427 21.2549 16.1535 21.0679C16.2643 20.8809 16.4107 20.7459 16.5742 20.68C16.6828 20.6362 16.7963 20.624 16.9081 20.644C17.02 20.664 17.128 20.7159 17.226 20.7967C17.3241 20.8775 17.4103 20.9856 17.4796 21.1148C17.5489 21.244 17.6001 21.3919 17.6302 21.5499Z" fill="#9A9A9A"/>
<g opacity="0.2">
<path d="M17.6263 21.5481C17.6716 21.786 17.6674 22.0382 17.6142 22.2727C17.561 22.5071 17.4612 22.7134 17.3274 22.8653C17.1937 23.0173 17.0319 23.1081 16.8627 23.1263C16.6935 23.1445 16.5243 23.0893 16.3767 22.9677C16.229 22.846 16.1094 22.6634 16.0331 22.4429C15.9568 22.2223 15.9271 21.9738 15.9478 21.7288C15.9686 21.4837 16.0388 21.2531 16.1496 21.0661C16.2604 20.8791 16.4068 20.7441 16.5703 20.6781C16.6789 20.6344 16.7924 20.6221 16.9042 20.6422C17.0161 20.6622 17.1241 20.7141 17.2221 20.7949C17.3202 20.8756 17.4064 20.9837 17.4757 21.113C17.545 21.2422 17.5962 21.3901 17.6263 21.5481Z" fill="black"/>
</g>
<path d="M17.6584 21.5881C17.7033 21.8229 17.6993 22.0718 17.6469 22.3033C17.5946 22.5349 17.4962 22.7386 17.3642 22.8887C17.2322 23.0388 17.0726 23.1286 16.9056 23.1467C16.7386 23.1648 16.5716 23.1104 16.4258 22.9904C16.28 22.8703 16.162 22.6901 16.0866 22.4724C16.0113 22.2547 15.982 22.0094 16.0025 21.7675C16.0229 21.5256 16.0923 21.298 16.2017 21.1135C16.3111 20.9289 16.4557 20.7957 16.6172 20.7308C16.8334 20.6439 17.0644 20.6853 17.2597 20.846C17.4549 21.0068 17.5983 21.2736 17.6584 21.5881Z" fill="#9A9A9A"/>
<g opacity="0.2">
<path d="M17.6623 21.5872C17.7072 21.8221 17.7032 22.071 17.6508 22.3025C17.5985 22.534 17.5001 22.7377 17.3681 22.8878C17.2361 23.038 17.0765 23.1278 16.9095 23.1459C16.7425 23.164 16.5755 23.1096 16.4297 22.9895C16.2839 22.8695 16.1659 22.6892 16.0905 22.4716C16.0152 22.2539 15.9859 22.0086 16.0064 21.7667C16.0268 21.5248 16.0962 21.2971 16.2056 21.1126C16.315 20.9281 16.4596 20.7949 16.6211 20.73C16.8373 20.643 17.0683 20.6844 17.2636 20.8452C17.4588 21.0059 17.6022 21.2728 17.6623 21.5872Z" fill="white"/>
</g>
<path d="M16.8604 21.8014L16.8022 21.4978C16.8417 21.4899 16.8818 21.4899 16.9213 21.4978C16.9421 21.504 16.9625 21.5131 16.9821 21.525V21.5143L16.9935 21.3917V21.3635L16.946 21.3216L16.93 21.3411C16.8762 21.3245 16.8206 21.3245 16.7668 21.3411L16.7354 21.1747L16.6912 21.1465L16.6993 21.1883L16.6504 21.2088L16.6825 21.3781C16.526 21.4657 16.4746 21.6311 16.504 21.7838C16.5441 21.9931 16.6772 21.9979 16.7996 21.9921L16.8571 22.2928C16.7804 22.3143 16.701 22.3035 16.6284 22.2616L16.611 22.4329C16.6996 22.4809 16.7961 22.4887 16.8878 22.4553L16.9119 22.5818L16.8718 22.5983L16.9199 22.6226L17.0042 22.5876L16.9721 22.4193C17.1299 22.3297 17.1821 22.1663 17.1533 22.0135C17.1179 21.7984 16.9828 21.7955 16.8604 21.8014ZM16.7695 21.8014C16.7026 21.8014 16.6538 21.7848 16.6404 21.7128C16.627 21.6408 16.6484 21.5795 16.7186 21.5338L16.7695 21.8014ZM16.946 22.247L16.8952 21.9853C16.9621 21.9853 17.0142 22.0028 17.0289 22.0758C17.0437 22.1488 17.0182 22.2032 16.946 22.25V22.247Z" fill="#9A9A9A"/>
<g opacity="0.3">
<path d="M16.8565 21.7998L16.7983 21.4962C16.8378 21.4883 16.8779 21.4883 16.9174 21.4962C16.9382 21.5024 16.9586 21.5115 16.9782 21.5234V21.5127L16.9896 21.3901V21.3619L16.9421 21.3201L16.9261 21.3395C16.8723 21.3229 16.8167 21.3229 16.7629 21.3395L16.7315 21.1731L16.6873 21.1449L16.6953 21.1867L16.6465 21.2072L16.6786 21.3765C16.5221 21.4641 16.4706 21.6295 16.5001 21.7823C16.5402 21.9915 16.6733 21.9963 16.7957 21.9905L16.8532 22.2912C16.7765 22.3127 16.6971 22.3019 16.6245 22.26L16.6071 22.4313C16.6957 22.4793 16.7922 22.4871 16.8839 22.4537L16.908 22.5802L16.8679 22.5967L16.916 22.6211L17.0003 22.586L16.9682 22.4177C17.126 22.3282 17.1782 22.1647 17.1494 22.0119C17.114 21.7969 16.9789 21.7939 16.8565 21.7998ZM16.7656 21.7998C16.6987 21.7998 16.6499 21.7832 16.6365 21.7112C16.6231 21.6392 16.6445 21.5779 16.7147 21.5322L16.7656 21.7998ZM16.9421 22.2454L16.8913 21.9837C16.9582 21.9837 17.0103 22.0012 17.025 22.0742C17.0398 22.1472 17.0143 22.2017 16.9421 22.2484V22.2454Z" fill="black"/>
</g>
<path d="M16.9331 22.3869L16.9652 22.5552L16.8809 22.5893L16.8488 22.4219C16.7571 22.4553 16.6606 22.4475 16.572 22.3995L16.5894 22.2293C16.6621 22.2703 16.7414 22.2808 16.8181 22.2594L16.7606 21.9587C16.6382 21.9646 16.5044 21.9587 16.465 21.7505C16.4355 21.5977 16.4864 21.4323 16.6435 21.3447L16.6114 21.1754L16.6957 21.1414L16.7278 21.3078C16.8028 21.2826 16.8809 21.2849 16.9552 21.3146L16.9418 21.4839C16.882 21.4612 16.8196 21.4565 16.7585 21.4703L16.8167 21.7739C16.9391 21.769 17.0742 21.7739 17.1143 21.9802C17.1417 22.1329 17.0909 22.2964 16.9331 22.3869ZM16.7258 21.7768L16.675 21.5092C16.6081 21.5549 16.584 21.6221 16.5967 21.6882C16.6094 21.7544 16.6609 21.7758 16.7258 21.7768ZM16.9846 22.0463C16.9705 21.9733 16.9177 21.9568 16.8508 21.9558L16.9017 22.2224C16.9746 22.1796 16.9966 22.1115 16.9846 22.0463Z" fill="#9A9A9A"/>
<path d="M16.0376 23.018C16.0376 23.018 16.0376 23.018 16.0302 23.0083L16.0102 22.9772C15.9993 22.9611 15.9891 22.9442 15.9794 22.9266C15.9687 22.9061 15.9547 22.8837 15.942 22.8565L15.9212 22.8147L15.9005 22.767C15.8858 22.7349 15.8724 22.6979 15.8577 22.6599C15.7966 22.4918 15.7566 22.3093 15.7393 22.1209C15.736 22.0771 15.732 22.0362 15.7313 21.9973C15.7313 21.9778 15.7313 21.9593 15.7313 21.9418V21.8912C15.7302 21.8617 15.7302 21.8322 15.7313 21.8027C15.7313 21.7764 15.7313 21.754 15.7353 21.7355L15.7393 21.6937V21.6791C15.7393 21.6791 15.7393 21.6791 15.7393 21.6937C15.7393 21.7083 15.7393 21.719 15.7393 21.7365C15.7385 21.7585 15.7385 21.7806 15.7393 21.8027C15.7393 21.8289 15.7393 21.8591 15.7393 21.8912C15.7393 21.9077 15.7393 21.9253 15.7393 21.9428C15.7393 21.9603 15.7393 21.9798 15.7393 21.9992C15.7393 22.0372 15.7447 22.078 15.748 22.1209C15.7577 22.2141 15.7723 22.3062 15.7915 22.3962C15.8117 22.4855 15.8365 22.5723 15.8657 22.656C15.8804 22.695 15.8931 22.731 15.9078 22.7641C15.9145 22.7796 15.9212 22.7962 15.9279 22.8108L15.948 22.8536C15.9607 22.8808 15.9741 22.9032 15.9848 22.9246C15.9955 22.946 16.0055 22.9626 16.0135 22.9762C16.0215 22.9898 16.0276 23.0005 16.0329 23.0083L16.0376 23.018Z" fill="white"/>
<path d="M16.5556 21.8489C16.544 21.8449 16.5334 21.8365 16.5248 21.8246C16.5027 21.7973 16.487 21.7605 16.48 21.7195C16.4735 21.6784 16.4763 21.6354 16.488 21.5969C16.4918 21.5807 16.4985 21.5663 16.5074 21.5551C16.5074 21.5551 16.5007 21.5716 16.4934 21.6008C16.4839 21.6378 16.482 21.6781 16.488 21.7166C16.4954 21.7537 16.5095 21.7873 16.5288 21.8139C16.5442 21.8392 16.5562 21.847 16.5556 21.8489Z" fill="white"/>
<path d="M16.6557 21.313C16.6491 21.2981 16.6446 21.2816 16.6423 21.2643C16.6379 21.2483 16.636 21.231 16.6369 21.2137C16.6437 21.2281 16.6483 21.2443 16.6503 21.2614C16.6548 21.2778 16.6566 21.2954 16.6557 21.313Z" fill="white"/>
<path d="M16.6442 20.6191C16.6356 20.6239 16.6266 20.6271 16.6175 20.6289L16.586 20.6386L16.5446 20.6551L16.4957 20.6775C16.4777 20.6863 16.4596 20.698 16.4402 20.7096C16.3987 20.7361 16.3585 20.7667 16.3199 20.8011C16.2817 20.8363 16.2453 20.8753 16.2109 20.9179C16.1955 20.9383 16.1801 20.9568 16.1674 20.9763C16.1547 20.9957 16.142 21.0142 16.1313 21.0308C16.1206 21.0473 16.1119 21.0638 16.1039 21.0775L16.0838 21.1144C16.0731 21.1349 16.0664 21.1456 16.0664 21.1456C16.0704 21.1335 16.0754 21.122 16.0811 21.1115C16.0869 21.0984 16.0931 21.0857 16.0998 21.0736C16.1079 21.059 16.1166 21.0424 16.1273 21.0249C16.138 21.0074 16.1493 20.9889 16.1627 20.9694C16.1761 20.95 16.1901 20.9305 16.2055 20.9091C16.2403 20.8657 16.2771 20.826 16.3158 20.7904C16.3549 20.7557 16.3955 20.7252 16.4376 20.6989C16.457 20.6873 16.4757 20.6766 16.4931 20.6688C16.5095 20.6601 16.5263 20.6526 16.5432 20.6464C16.5586 20.6396 16.5726 20.6367 16.5847 20.6328C16.5953 20.629 16.606 20.626 16.6168 20.624L16.6442 20.6191Z" fill="white"/>
<path d="M17.2434 23.3492L17.226 23.3648C17.214 23.3736 17.1966 23.3862 17.1745 23.3998C17.1168 23.4351 17.0564 23.4606 16.9946 23.4757C16.9328 23.4909 16.87 23.4958 16.8074 23.4903L16.7512 23.4816L16.7305 23.4757C16.7373 23.4742 16.7443 23.4742 16.7512 23.4757C16.7646 23.4757 16.784 23.4757 16.808 23.4757C16.87 23.4791 16.9321 23.4732 16.9933 23.4582C17.0543 23.4427 17.1141 23.4186 17.1718 23.3862C17.1946 23.3736 17.212 23.3619 17.224 23.3541C17.2303 23.3515 17.2368 23.3499 17.2434 23.3492Z" fill="white"/>
<path d="M28.202 19.1986C28.2421 19.4108 28.238 19.6356 28.1902 19.8445C28.1425 20.0534 28.0533 20.237 27.9339 20.3721C27.8144 20.5073 27.6702 20.5878 27.5193 20.6037C27.3684 20.6195 27.2176 20.5698 27.0861 20.461C26.9546 20.3522 26.8482 20.1891 26.7804 19.9924C26.7126 19.7956 26.6864 19.574 26.7051 19.3555C26.7238 19.1371 26.7866 18.9316 26.8856 18.7651C26.9846 18.5986 27.1152 18.4786 27.2611 18.4201C27.358 18.3813 27.4592 18.3706 27.559 18.3887C27.6587 18.4068 27.755 18.4533 27.8424 18.5256C27.9298 18.5979 28.0065 18.6946 28.0682 18.81C28.1299 18.9255 28.1754 19.0575 28.202 19.1986Z" fill="#9A9A9A"/>
<g opacity="0.1">
<path d="M27.2658 18.4215C27.1688 18.4602 27.078 18.5264 26.9985 18.6163C26.9191 18.7061 26.8527 18.8179 26.803 18.9451C26.7533 19.0724 26.7213 19.2126 26.709 19.3579C26.6966 19.5031 26.704 19.6505 26.7308 19.7916C26.7308 19.7916 27.2551 19.6164 27.3219 19.2622C27.3888 18.908 27.2658 18.4215 27.2658 18.4215Z" fill="white"/>
</g>
<path d="M28.0095 19.263C28.0404 19.4244 28.0377 19.5955 28.0017 19.7546C27.9658 19.9137 27.8982 20.0538 27.8075 20.157C27.7169 20.2602 27.6072 20.322 27.4924 20.3345C27.3776 20.347 27.2628 20.3097 27.1626 20.2272C27.0624 20.1448 26.9813 20.0209 26.9295 19.8713C26.8776 19.7218 26.8575 19.5532 26.8715 19.3869C26.8856 19.2207 26.9332 19.0642 27.0084 18.9374C27.0836 18.8105 27.1829 18.719 27.2939 18.6743C27.4424 18.6148 27.6011 18.6434 27.7352 18.7537C27.8693 18.864 27.9679 19.0472 28.0095 19.263Z" fill="#9A9A9A"/>
<g opacity="0.2">
<path d="M28.0134 19.2626C28.0443 19.4239 28.0416 19.595 28.0056 19.7541C27.9697 19.9133 27.9021 20.0533 27.8114 20.1565C27.7208 20.2597 27.6111 20.3215 27.4963 20.334C27.3815 20.3465 27.2668 20.3092 27.1665 20.2267C27.0663 20.1443 26.9852 20.0204 26.9334 19.8709C26.8815 19.7213 26.8614 19.5527 26.8754 19.3864C26.8895 19.2202 26.9371 19.0637 27.0123 18.9369C27.0875 18.81 27.1869 18.7185 27.2978 18.6738C27.4463 18.6143 27.605 18.6429 27.7391 18.7532C27.8732 18.8635 27.9718 19.0467 28.0134 19.2626Z" fill="black"/>
</g>
<path d="M27.6582 20.3052C27.96 20.1645 28.1263 19.6945 28.0296 19.2554C27.933 18.8162 27.61 18.5743 27.3082 18.7149C27.0064 18.8556 26.8401 19.3256 26.9367 19.7647C27.0334 20.2038 27.3564 20.4458 27.6582 20.3052Z" fill="#9A9A9A"/>
<g opacity="0.2">
<path d="M27.6582 20.3087C27.96 20.168 28.1263 19.698 28.0296 19.2589C27.933 18.8198 27.61 18.5778 27.3082 18.7185C27.0064 18.8591 26.8401 19.3291 26.9367 19.7683C27.0334 20.2074 27.3564 20.4493 27.6582 20.3087Z" fill="white"/>
</g>
<path d="M27.4929 19.4288L27.4535 19.2235C27.4801 19.2181 27.5071 19.2181 27.5337 19.2235C27.5479 19.2275 27.5618 19.2333 27.5752 19.241V19.2342L27.5832 19.1515V19.132L27.5511 19.1038L27.5404 19.1165C27.5038 19.1058 27.466 19.1058 27.4294 19.1165L27.408 19.0036L27.3786 18.9851L27.3839 19.0133L27.3505 19.027L27.3725 19.1418C27.2662 19.2011 27.2314 19.313 27.2515 19.4172C27.2783 19.5592 27.3692 19.5621 27.4521 19.5583L27.4909 19.7616C27.4389 19.7761 27.3851 19.769 27.3358 19.7412L27.3237 19.857C27.3839 19.8894 27.4493 19.8949 27.5116 19.8726L27.5284 19.9572L27.5009 19.9689L27.533 19.9854L27.5906 19.9621L27.5752 19.8434C27.6822 19.7821 27.7176 19.6711 27.6976 19.567C27.6675 19.4269 27.5752 19.4249 27.4929 19.4288ZM27.4314 19.4288C27.3873 19.4288 27.3525 19.4172 27.3431 19.3685C27.3338 19.3198 27.3491 19.279 27.3966 19.2478L27.4314 19.4288ZM27.5504 19.7305L27.5163 19.5505C27.5611 19.5505 27.5966 19.5621 27.6066 19.6118C27.6166 19.6614 27.5992 19.7013 27.5504 19.7324V19.7305Z" fill="#9A9A9A"/>
<g opacity="0.3">
<path d="M27.489 19.4299L27.4496 19.2246C27.4762 19.2192 27.5032 19.2192 27.5298 19.2246C27.544 19.2286 27.5579 19.2344 27.5713 19.2421V19.2353L27.5793 19.1526V19.1331L27.5472 19.1049L27.5365 19.1176C27.4999 19.1069 27.4621 19.1069 27.4255 19.1176L27.4041 19.0047L27.3747 18.9862L27.38 19.0144L27.3466 19.028L27.3686 19.1429C27.2623 19.2022 27.2275 19.3141 27.2476 19.4183C27.2743 19.5603 27.3653 19.5632 27.4482 19.5594L27.487 19.7627C27.435 19.7772 27.3812 19.7701 27.3319 19.7423L27.3198 19.8581C27.38 19.8905 27.4454 19.896 27.5077 19.8737L27.5245 19.9583L27.497 19.97L27.5291 19.9865L27.5866 19.9632L27.5713 19.8445C27.6783 19.7832 27.7137 19.6722 27.6936 19.5681C27.6636 19.428 27.5713 19.426 27.489 19.4299ZM27.4275 19.4299C27.3834 19.4299 27.3486 19.4183 27.3392 19.3696C27.3298 19.3209 27.3452 19.2801 27.3927 19.2489L27.4275 19.4299ZM27.5465 19.7316L27.5124 19.5516C27.5572 19.5516 27.5927 19.5632 27.6027 19.6129C27.6127 19.6625 27.5953 19.7024 27.5465 19.7335V19.7316Z" fill="black"/>
</g>
<path d="M27.5416 19.8297L27.5636 19.9436L27.5061 19.9669L27.4847 19.8541C27.4224 19.8764 27.357 19.871 27.2968 19.8385L27.3088 19.7227C27.3579 19.751 27.4115 19.758 27.4633 19.7431L27.4245 19.5398C27.3416 19.5398 27.2513 19.5398 27.2239 19.3987C27.2045 19.2945 27.2386 19.1826 27.3456 19.1233L27.3236 19.0085L27.3811 18.9851L27.4025 19.098C27.4529 19.0793 27.5058 19.0793 27.5563 19.098L27.5476 19.2128C27.507 19.197 27.4646 19.194 27.4232 19.2041L27.4627 19.4094C27.5456 19.4094 27.6372 19.4094 27.6633 19.5485C27.684 19.6575 27.6486 19.7684 27.5416 19.8297ZM27.4011 19.4162L27.3664 19.2352C27.3189 19.2663 27.3048 19.3111 27.3135 19.3559C27.3222 19.4006 27.357 19.4152 27.4011 19.4162ZM27.5763 19.5991C27.567 19.5495 27.5315 19.5378 27.4861 19.5378L27.5208 19.7188C27.5697 19.6867 27.585 19.6429 27.5743 19.5991H27.5763Z" fill="#9A9A9A"/>
<path d="M26.939 20.2569L26.9336 20.2501L26.9203 20.2287C26.9142 20.2199 26.9076 20.2082 26.8995 20.1946C26.8915 20.181 26.8828 20.1654 26.8741 20.1469C26.8654 20.1284 26.8654 20.1284 26.8601 20.1177L26.846 20.0856C26.836 20.0642 26.8273 20.0389 26.8173 20.0136C26.7969 19.9563 26.7797 19.8968 26.7658 19.8355C26.7525 19.7743 26.7429 19.7114 26.737 19.6477C26.737 19.6185 26.7317 19.5903 26.731 19.564C26.7303 19.5378 26.731 19.5387 26.731 19.5261V19.4911C26.7303 19.471 26.7303 19.4508 26.731 19.4307C26.7316 19.4157 26.7327 19.4008 26.7344 19.386V19.3568C26.7344 19.3509 26.7344 19.347 26.7344 19.347C26.7345 19.3506 26.7345 19.3542 26.7344 19.3577V19.386C26.7344 19.3986 26.7344 19.4132 26.7344 19.4307C26.7337 19.4508 26.7337 19.471 26.7344 19.4911V19.5261C26.7344 19.5387 26.7344 19.5514 26.7344 19.564C26.7344 19.5767 26.7377 19.6176 26.7397 19.6468C26.7465 19.71 26.7563 19.7724 26.7691 19.8336C26.7832 19.894 26.8002 19.9528 26.82 20.0097C26.8293 20.0363 26.8387 20.0606 26.848 20.0827L26.8621 20.1148L26.8755 20.143C26.8842 20.1615 26.8928 20.1771 26.9002 20.1917L26.9203 20.2267L26.933 20.2481L26.939 20.2569Z" fill="white"/>
<path d="M27.2877 19.4639C27.2801 19.4603 27.273 19.4543 27.267 19.4464C27.252 19.4284 27.2415 19.4038 27.2369 19.3763C27.2323 19.3484 27.234 19.3191 27.2416 19.2926C27.2447 19.282 27.2492 19.2724 27.255 19.2644C27.2515 19.2742 27.2484 19.2843 27.2456 19.2946C27.2407 19.3207 27.2407 19.3483 27.2456 19.3744C27.2505 19.4002 27.2599 19.4237 27.273 19.4425C27.2804 19.4571 27.2884 19.4629 27.2877 19.4639Z" fill="white"/>
<path d="M27.3532 19.099C27.3532 19.099 27.3472 19.0853 27.3439 19.0668C27.3411 19.0556 27.3397 19.0437 27.3399 19.0317C27.3399 19.0317 27.3459 19.0454 27.3492 19.0639C27.352 19.0751 27.3534 19.087 27.3532 19.099Z" fill="white"/>
<path d="M27.3411 18.6284L27.323 18.6352L27.3016 18.642L27.2736 18.6527C27.2624 18.6569 27.2515 18.6621 27.2408 18.6683C27.2288 18.6742 27.216 18.6819 27.2033 18.6897C27.1752 18.7075 27.148 18.7279 27.1218 18.751C27.0959 18.7753 27.0711 18.8019 27.0475 18.8308C27.0373 18.8434 27.0274 18.8567 27.0181 18.8707C27.0095 18.8823 27.0015 18.8946 26.994 18.9077C26.9867 18.9184 26.9806 18.9301 26.9746 18.9398L26.9613 18.9641C26.9576 18.9717 26.9536 18.9788 26.9492 18.9855L26.9592 18.9622L26.9726 18.9369C26.978 18.9272 26.9833 18.9155 26.9907 18.9038C26.998 18.8921 27.0054 18.8785 27.0148 18.8658C27.0241 18.8532 27.0335 18.8396 27.0442 18.825C27.0675 18.7954 27.0923 18.7684 27.1184 18.7442C27.1448 18.7206 27.1723 18.6998 27.2007 18.6819L27.2388 18.6615L27.2729 18.6469L27.301 18.6372L27.323 18.6313L27.3411 18.6284Z" fill="white"/>
<path d="M27.754 20.4744C27.7505 20.4789 27.7464 20.4826 27.742 20.4851C27.7339 20.4919 27.7219 20.4997 27.7072 20.5094C27.6286 20.5575 27.5435 20.5785 27.4584 20.5707L27.4203 20.5649L27.4062 20.56H27.4203C27.4297 20.56 27.4424 20.56 27.4584 20.56C27.5005 20.5614 27.5426 20.5571 27.5841 20.5473C27.6258 20.5374 27.6666 20.5211 27.7058 20.4987L27.7413 20.4773L27.754 20.4744Z" fill="white"/>
<path d="M24.8848 31.6078H20.4805V45.407H24.8848V31.6078Z" fill="#9A9A9A"/>
<g opacity="0.3">
<path d="M24.8851 31.603H23.5195V45.4023H24.8851V31.603Z" fill="black"/>
</g>
<path d="M23.5187 45.4012C23.5087 45.4012 23.5 42.3467 23.5 38.5799C23.5 34.8132 23.5087 31.7577 23.5187 31.7577C23.5288 31.7577 23.5375 34.8122 23.5375 38.5799C23.5375 42.3477 23.5294 45.4012 23.5187 45.4012Z" fill="#263238"/>
<path d="M19.5098 26.7421H15.1055V45.4057H19.5098V26.7421Z" fill="#9A9A9A"/>
<g opacity="0.3">
<path d="M19.5062 26.735H18.1406V45.3986H19.5062V26.735Z" fill="black"/>
</g>
<path d="M18.1437 45.4063C18.133 45.4063 18.125 41.2756 18.125 36.1806C18.125 31.0855 18.1344 26.949 18.1437 26.949C18.1531 26.949 18.1624 31.0797 18.1624 36.1767C18.1624 41.2737 18.1551 45.4063 18.1437 45.4063Z" fill="#263238"/>
<path d="M30.3184 35.6202H25.9141V45.4026H30.3184V35.6202Z" fill="#9A9A9A"/>
<g opacity="0.3">
<path d="M30.3148 35.6254H28.9492V45.4077H30.3148V35.6254Z" fill="black"/>
</g>
<path d="M28.9562 45.4003C28.9455 45.4003 28.9375 43.2352 28.9375 40.5651C28.9375 37.895 28.9455 35.7289 28.9562 35.7289C28.9669 35.7289 28.9749 37.894 28.9749 40.5651C28.9749 43.2362 28.9663 45.4003 28.9562 45.4003Z" fill="#263238"/>
<path d="M35.6348 40.0671H31.2305V45.4045H35.6348V40.0671Z" fill="#9A9A9A"/>
<g opacity="0.3">
<path d="M35.6351 40.0608H34.2695V45.3981H35.6351V40.0608Z" fill="black"/>
</g>
<path d="M34.2687 45.4062C34.258 45.4062 34.25 44.2248 34.25 42.7681C34.25 41.3114 34.258 40.1292 34.2687 40.1292C34.2794 40.1292 34.2874 41.3105 34.2874 42.7681C34.2874 44.2258 34.2788 45.4062 34.2687 45.4062Z" fill="#263238"/>
<path d="M41.0137 41.9131H36.6094V45.4035H41.0137V41.9131Z" fill="#9A9A9A"/>
<g opacity="0.3">
<path d="M41.014 41.9114H39.6484V45.4018H41.014V41.9114Z" fill="black"/>
</g>
<path d="M39.6437 45.4007C39.6337 45.4007 39.625 44.6281 39.625 43.6755C39.625 42.7228 39.6337 41.9492 39.6437 41.9492C39.6538 41.9492 39.6624 42.7218 39.6624 43.6755C39.6624 44.6291 39.6544 45.4007 39.6437 45.4007Z" fill="#263238"/>
<path d="M14.1348 20.6044H9.73047V45.4004H14.1348V20.6044Z" fill="#9A9A9A"/>
<g opacity="0.3">
<path d="M14.1351 20.6028H12.7695V45.3988H14.1351V20.6028Z" fill="black"/>
</g>
<path d="M12.7687 45.5006C12.7587 45.5006 12.75 39.9901 12.75 33.1931C12.75 26.3962 12.7587 20.8837 12.7687 20.8837C12.7788 20.8837 12.7874 26.3942 12.7874 33.1931C12.7874 39.992 12.7788 45.5006 12.7687 45.5006Z" fill="#263238"/>
<path d="M8.75984 15.5681H4.35547V45.4981H8.75984V15.5681Z" fill="#9A9A9A"/>
<g opacity="0.3">
<path d="M8.76402 15.5692H7.39844V45.4992H8.76402V15.5692Z" fill="black"/>
</g>
<path d="M7.39372 45.4968C7.38369 45.4968 7.375 38.8721 7.375 30.7061C7.375 22.54 7.38369 15.9094 7.39372 15.9094C7.40376 15.9094 7.41245 22.5322 7.41245 30.7061C7.41245 38.8799 7.40442 45.4968 7.39372 45.4968Z" fill="#263238"/>
<path d="M7.85146 12.9143C9.13169 11.653 9.46685 9.12049 8.60007 7.25766C7.7333 5.39484 5.99281 4.90714 4.71258 6.16837C3.43236 7.4296 3.09719 9.96214 3.96397 11.825C4.83075 13.6878 6.57124 14.1755 7.85146 12.9143Z" fill="#9A9A9A"/>
<path opacity="0.3" d="M7.85146 12.9143C9.13169 11.653 9.46685 9.12049 8.60007 7.25766C7.7333 5.39484 5.99281 4.90714 4.71258 6.16837C3.43236 7.4296 3.09719 9.96214 3.96397 11.825C4.83075 13.6878 6.57124 14.1755 7.85146 12.9143Z" fill="black"/>
<path d="M7.85146 12.4643C9.13169 11.2031 9.46685 8.67054 8.60008 6.80771C7.7333 4.94488 5.99281 4.45719 4.71258 5.71842C3.43236 6.97965 3.09719 9.51219 3.96397 11.375C4.83075 13.2378 6.57124 13.7255 7.85146 12.4643Z" fill="#9A9A9A"/>
<path d="M6.28532 11.8201C7.32095 11.8201 8.16049 10.5985 8.16049 9.09155C8.16049 7.58463 7.32095 6.36304 6.28532 6.36304C5.2497 6.36304 4.41016 7.58463 4.41016 9.09155C4.41016 10.5985 5.2497 11.8201 6.28532 11.8201Z" fill="white"/>
<path d="M6.93073 10.0372C7.28905 9.5158 7.28905 8.67048 6.93073 8.14911C6.57242 7.62773 5.99147 7.62773 5.63316 8.14911C5.27485 8.67048 5.27485 9.5158 5.63316 10.0372C5.99147 10.5585 6.57242 10.5585 6.93073 10.0372Z" fill="#9A9A9A"/>
<path d="M8.53327 5.63998L8.45703 4.77102L9.06559 3.82422L9.10906 4.76227L8.53327 5.63998Z" fill="#455A64"/>
<path d="M9.83607 4.95201L9.21948 4.87903L8.60156 5.7441L9.21948 5.84043L9.83607 4.95201Z" fill="#455A64"/>
<path opacity="0.3" d="M6.40234 9.0723L8.54233 6.6941C8.46198 6.52541 8.37253 6.3663 8.27484 6.21826L6.40234 8.86017V9.0723Z" fill="black"/>
<path d="M9.16636 4.53511L8.18263 5.98305L6.62512 8.27952L6.26667 8.8079C6.15298 8.97527 6.33355 9.23314 6.44389 9.06577L7.42628 7.61782L8.98513 5.32136L9.34358 4.79298C9.45659 4.62561 9.2767 4.36774 9.16569 4.53511H9.16636Z" fill="#263238"/>
<path d="M6.28301 3.98106C6.27298 3.98106 6.26562 3.2026 6.26562 2.24023C6.26562 1.27785 6.27298 0.49939 6.28301 0.49939C6.29304 0.49939 6.3004 1.27785 6.3004 2.24023C6.3004 3.2026 6.29238 3.98106 6.28301 3.98106Z" fill="#263238"/>
<path d="M8.09002 2.16455C8.09738 2.17331 7.90611 2.56448 7.66269 3.04032C7.41927 3.51615 7.2153 3.89176 7.20727 3.883C7.19925 3.87425 7.39118 3.48404 7.6346 3.00723C7.87803 2.53043 8.082 2.15676 8.09002 2.16455Z" fill="#263238"/>
<path d="M4.45343 2.08175C4.46212 2.07494 4.62797 2.48947 4.82458 3.00715C5.0212 3.52482 5.173 3.95103 5.16498 3.95784C5.15695 3.96466 4.99043 3.55012 4.79382 3.03147C4.59721 2.51282 4.4454 2.08856 4.45343 2.08175Z" fill="#263238"/>
<path d="M34.3359 12.7578L34.8709 12.6673C35.1717 13.1122 35.5761 13.3773 36.0044 13.4105C36.4327 13.4436 36.8541 13.2424 37.1856 12.8464C37.5172 12.4505 37.7349 11.8883 37.7961 11.2706C37.8573 10.6528 37.7574 10.0241 37.5161 9.50809C37.2749 8.99205 36.9097 8.62598 36.4923 8.48187C36.075 8.33775 35.6357 8.42601 35.2608 8.72929C34.8859 9.03257 34.6026 9.52894 34.4664 10.1208C34.3303 10.7127 34.3513 11.3572 34.5252 11.9278L34.3359 12.7578Z" fill="white"/>
<path d="M34.3359 12.7569C34.3359 12.7569 34.3359 12.7403 34.346 12.7053L34.3801 12.5467C34.4108 12.4027 34.4563 12.1935 34.5138 11.922L34.5178 11.9025L34.5272 11.9181L34.5145 11.9298C34.3958 11.5468 34.3454 11.1264 34.368 10.7076C34.3829 10.4391 34.428 10.1761 34.5018 9.9291C34.6502 9.42147 34.9092 8.99893 35.2389 8.72659C35.5685 8.45425 35.9506 8.34723 36.3263 8.42202C36.7019 8.49681 37.0502 8.74927 37.3174 9.14047C37.5847 9.53168 37.7562 10.0399 37.8054 10.5869C37.839 10.9755 37.8113 11.3702 37.7245 11.741C37.6414 12.0887 37.5064 12.4054 37.3293 12.6683C37.1654 12.911 36.9699 13.1036 36.7541 13.2347C36.3837 13.4581 35.9714 13.4874 35.5878 13.3174C35.3143 13.1942 35.0664 12.973 34.8669 12.6742H34.8729L34.4717 12.7355L34.37 12.7501C34.3591 12.7509 34.3482 12.7509 34.3373 12.7501L34.3727 12.7423L34.4757 12.7228L34.8703 12.6489H34.8736C35.0335 12.8819 35.2237 13.0663 35.433 13.1914C35.6423 13.3166 35.8666 13.38 36.0929 13.3779C36.3192 13.3758 36.543 13.3083 36.7512 13.1793C36.9594 13.0503 37.148 12.8624 37.3058 12.6265C37.4794 12.3678 37.6114 12.0564 37.6924 11.7147C37.7763 11.3551 37.8035 10.9726 37.772 10.5957C37.7189 10.011 37.524 9.47315 37.2223 9.07931C36.9206 8.68547 36.532 8.46158 36.1268 8.44808C35.8924 8.44098 35.6595 8.50439 35.4427 8.63432C35.2259 8.76426 35.0299 8.95792 34.8669 9.20319C34.7239 9.41815 34.6092 9.66947 34.5285 9.94467C34.4551 10.1877 34.4099 10.4469 34.3948 10.7115C34.3708 11.1254 34.4182 11.5414 34.5325 11.922L34.5553 11.9969L34.5198 11.9336H34.5332L34.3901 12.5467C34.3734 12.6158 34.3613 12.6683 34.352 12.7063L34.3359 12.7569Z" fill="#263238"/>
<path d="M35.2461 11.0112L35.4574 10.6823L35.8921 11.2068L36.6926 10.007L36.9026 10.3154L35.8747 11.8217L35.2461 11.0112Z" fill="#9A9A9A"/>
</svg>
