<svg width="26" height="26" viewBox="0 0 26 26" fill="none" xmlns="http://www.w3.org/2000/svg">
<path d="M19.9508 11.6603H13.7146V5.42413C13.7146 5.14847 13.6051 4.88411 13.4102 4.68919C13.2153 4.49427 12.9509 4.38477 12.6752 4.38477C12.3996 4.38477 12.1352 4.49427 11.9403 4.68919C11.7454 4.88411 11.6359 5.14847 11.6359 5.42413V11.6603H5.39971C5.12406 11.6603 4.85969 11.7698 4.66477 11.9647C4.46986 12.1596 4.36035 12.424 4.36035 12.6996C4.36035 12.9753 4.46986 13.2397 4.66477 13.4346C4.85969 13.6295 5.12406 13.739 5.39971 13.739H11.6359V19.9752C11.6359 20.2508 11.7454 20.5152 11.9403 20.7101C12.1352 20.905 12.3996 21.0145 12.6752 21.0145C12.9509 21.0145 13.2153 20.905 13.4102 20.7101C13.6051 20.5152 13.7146 20.2508 13.7146 19.9752V13.739H19.9508C20.2264 13.739 20.4908 13.6295 20.6857 13.4346C20.8806 13.2397 20.9901 12.9753 20.9901 12.6996C20.9901 12.424 20.8806 12.1596 20.6857 11.9647C20.4908 11.7698 20.2264 11.6603 19.9508 11.6603Z" fill="#98A2B3"/>
</svg>
