<svg width="18" height="12" viewBox="0 0 18 12" fill="none" xmlns="http://www.w3.org/2000/svg">
<path d="M8.99648 7.73173L15.4612 1.00729C15.6387 0.822133 15.8762 0.720273 16.1293 0.720273C16.3826 0.720273 16.6199 0.822132 16.7978 1.00729L17.3639 1.59652C17.5421 1.78139 17.6401 2.02851 17.6401 2.29185C17.6401 2.55519 17.5421 2.80202 17.3639 2.98703L9.66717 10.9935C9.48875 11.1793 9.25035 11.281 8.99691 11.2803C8.74234 11.281 8.50421 11.1794 8.32565 10.9935L0.636333 2.99449C0.458194 2.80948 0.360134 2.56265 0.360134 2.29916C0.360134 2.03582 0.458194 1.78899 0.636333 1.60383L1.2025 1.01475C1.571 0.631423 2.17088 0.631423 2.53924 1.01474L8.99648 7.73173Z" fill="#00008F"/>
</svg>
